<?xml version="1.0" encoding="UTF-8"?>
<svg version="1.1" xmlns="http://www.w3.org/2000/svg" width="1587" height="1123">
<path d="M0 0 C7.45862959 -0.0232197 14.91725132 -0.04096405 22.37590981 -0.05181217 C25.83964952 -0.05701998 29.30336441 -0.06407929 32.76708984 -0.07543945 C36.75357766 -0.08843161 40.74005559 -0.0932456 44.7265625 -0.09765625 C45.96427399 -0.10281754 47.20198547 -0.10797882 48.47720337 -0.11329651 C50.21832901 -0.11340981 50.21832901 -0.11340981 51.99462891 -0.11352539 C53.01166901 -0.115746 54.02870911 -0.11796661 55.0765686 -0.12025452 C58 0 58 0 61.31283569 0.56959534 C62.19959991 0.71162888 63.08636414 0.85366241 64 1 C64.33 0.67 64.66 0.34 65 0 C68.12901116 -0.10604295 71.23607078 -0.14677383 74.36572266 -0.14526367 C75.34948883 -0.14862228 76.333255 -0.1519809 77.34683228 -0.15544128 C80.61925499 -0.16498744 83.8916267 -0.16689658 87.1640625 -0.16796875 C89.4327293 -0.17118005 91.7013959 -0.17454402 93.97006226 -0.17805481 C98.73671956 -0.18405613 103.50335871 -0.18589381 108.27001953 -0.18530273 C114.37321016 -0.18520134 120.47628384 -0.19882533 126.57944679 -0.21607494 C131.27038098 -0.22720696 135.96128708 -0.22922153 140.65223312 -0.22869301 C142.90164974 -0.2298724 145.1510671 -0.23429186 147.40047073 -0.24202538 C150.55303294 -0.25184429 153.70534373 -0.24893901 156.85791016 -0.24291992 C157.78494751 -0.24853943 158.71198486 -0.25415894 159.66711426 -0.25994873 C164.83580104 -0.23492626 169.1043922 0.3178369 174 2 C174.84531643 9.08451085 175.14769172 16.05613491 175.1328125 23.1875 C175.13376923 24.21182129 175.13472595 25.23614258 175.13571167 26.29150391 C175.13638726 28.43603579 175.13457668 30.58056979 175.13037109 32.72509766 C175.12496949 36.01860054 175.1303597 39.3119698 175.13671875 42.60546875 C175.13605872 44.6953128 175.13477913 46.78515677 175.1328125 48.875 C175.13483673 49.86137451 175.13686096 50.84774902 175.13894653 51.86401367 C175.13421829 53.22683472 175.13421829 53.22683472 175.12939453 54.6171875 C175.12859894 55.41753418 175.12780334 56.21788086 175.12698364 57.04248047 C175 59 175 59 174 61 C172.125 60.8125 172.125 60.8125 170 60 C168.75 57.4375 168.75 57.4375 168 55 C168 57.64 168 60.28 168 63 C167.34 62.67 166.68 62.34 166 62 C165.59270772 59.67843403 165.25561323 57.3431213 165 55 C164.34 55 163.68 55 163 55 C162.67 55.66 162.34 56.32 162 57 C161.83197949 55.54182203 161.66562857 54.0834516 161.5 52.625 C161.4071875 51.81289063 161.314375 51.00078125 161.21875 50.1640625 C161 48 161 48 161 46 C160.34 45.67 159.68 45.34 159 45 C158.375 41.9375 158.375 41.9375 158 39 C157.01 39.495 157.01 39.495 156 40 C156.2165625 40.54269531 156.433125 41.08539063 156.65625 41.64453125 C157.07390625 42.71767578 157.07390625 42.71767578 157.5 43.8125 C157.91765625 44.87404297 157.91765625 44.87404297 158.34375 45.95703125 C159 48 159 48 159 51 C158.34 51 157.68 51 157 51 C157 51.99 157 52.98 157 54 C156.34 54 155.68 54 155 54 C154.67 52.68 154.34 51.36 154 50 C153.01 50 152.02 50 151 50 C150.34 50 149.68 50 149 50 C147.55705391 46.92171502 146.88211049 44.29247836 146.625 40.9375 C145.93051608 36.56225132 145.3439842 35.69376505 142 33 C141.13375 32.113125 140.2675 31.22625 139.375 30.3125 C137.22713676 27.98708851 137.22713676 27.98708851 135 27 C135.33 30.63 135.66 34.26 136 38 C135.01 37.67 134.02 37.34 133 37 C133 36.34 133 35.68 133 35 C132.01 35 131.02 35 130 35 C129.01 32.03 129.01 32.03 128 29 C126.68 29 125.36 29 124 29 C123.67 27.68 123.34 26.36 123 25 C123.66 25 124.32 25 125 25 C124.5188509 19.22621075 122.81532819 15.04140164 120 10 C120 11.98 120 13.96 120 16 C114.91130316 13.83639731 111.35876434 12.30721977 109 7 C108.86722656 7.66386719 108.73445312 8.32773437 108.59765625 9.01171875 C107.73177083 13.34114583 106.86588542 17.67057292 106 22 C103.72299943 19.72299943 103.47898308 18.58686902 102.8125 15.5 C102.63332031 14.7059375 102.45414063 13.911875 102.26953125 13.09375 C102 11 102 11 103 9 C102.34 9 101.68 9 101 9 C101 9.99 101 10.98 101 12 C100.34 12 99.68 12 99 12 C99.33 10.35 99.66 8.7 100 7 C99.34 7 98.68 7 98 7 C98.33 5.68 98.66 4.36 99 3 C97.29159719 4.63412443 96.06546953 5.86906094 95 8 C94.01 8 93.02 8 92 8 C91.89558594 8.58265625 91.79117188 9.1653125 91.68359375 9.765625 C90.89706383 12.33645423 89.82434109 13.7340058 88.0625 15.75 C87.53785156 16.36359375 87.01320313 16.9771875 86.47265625 17.609375 C85 19 85 19 83 19 C82.773125 19.680625 82.54625 20.36125 82.3125 21.0625 C80.00689791 26.22265706 77.52548022 30.44914851 72.375 33.0625 C68.53039925 35.26958562 67.57055617 36.93503109 66 41 C65.34 41 64.68 41 64 41 C62.71569138 42.47695491 61.43419292 43.95806138 60.21875 45.4921875 C59 47 59 47 57 49 C57.66 49.33 58.32 49.66 59 50 C58.01 52.31 57.02 54.62 56 57 C55.34 57 54.68 57 54 57 C53.773125 57.66 53.54625 58.32 53.3125 59 C51.6121185 62.88658628 49.60376916 66.63679817 47 70 C46.34 70 45.68 70 45 70 C45 70.66 45 71.32 45 72 C44.34 72 43.68 72 43 72 C43 72.99 43 73.98 43 75 C42.34 75 41.68 75 41 75 C40.505 76.98 40.505 76.98 40 79 C38.68 79 37.36 79 36 79 C35.34 80.98 34.68 82.96 34 85 C32.68 84.67 31.36 84.34 30 84 C29.87625 85.051875 29.7525 86.10375 29.625 87.1875 C29 91 29 91 28 93.1875 C26.6267463 97.04977604 26.53880889 100.74116666 26.375 104.8125 C26.31699219 105.99489258 26.31699219 105.99489258 26.2578125 107.20117188 C26.16411156 109.1337538 26.08099221 111.06684376 26 113 C24.79371992 110.66785852 23.8345262 108.50357861 23 106 C22.67 106.33 22.34 106.66 22 107 C22.25701566 109.25701112 22.58142324 111.50648366 22.9375 113.75 C23.59078823 117.88605 24.1359492 121.80956581 24 126 C23.34 126 22.68 126 22 126 C22.66 129.63 23.32 133.26 24 137 C23.34 137 22.68 137 22 137 C19.96564469 133.27034861 19 131.33094958 19 127 C18.01 127 17.02 127 16 127 C14.515 126.505 14.515 126.505 13 126 C13.495 124.515 13.495 124.515 14 123 C14.0685495 121.10529184 14.08480372 119.2083166 14.0625 117.3125 C14.05347656 116.31863281 14.04445313 115.32476563 14.03515625 114.30078125 C14.02355469 113.54152344 14.01195312 112.78226563 14 112 C13.34 112 12.68 112 12 112 C12.33 114.64 12.66 117.28 13 120 C11.515 120.495 11.515 120.495 10 121 C10 120.34 10 119.68 10 119 C8.68 119 7.36 119 6 119 C6.350625 119.9075 6.70125 120.815 7.0625 121.75 C7.96468779 124.87758436 8.13381507 126.05208081 7 129 C6.34 127.68 5.68 126.36 5 125 C4.01 125 3.02 125 2 125 C2 126.65 2 128.3 2 130 C1.34 130 0.68 130 0 130 C-0.33 129.34 -0.66 128.68 -1 128 C-1.66 129.98 -2.32 131.96 -3 134 C-3.66 134 -4.32 134 -5 134 C-4.979375 133.2575 -4.95875 132.515 -4.9375 131.75 C-5.01275621 128.43872658 -5.52248032 125.95503937 -7 123 C-7.24658276 118.85948171 -7.18522267 114.70951761 -7.1875 110.5625 C-7.19974609 109.42361328 -7.21199219 108.28472656 -7.22460938 107.11132812 C-7.23560731 100.69220294 -6.80961803 94.71410494 -5.44311523 88.43603516 C-4.74409711 84.5931686 -4.8722804 80.89544767 -5 77 C-5.66 77 -6.32 77 -7 77 C-7 52.58 -7 28.16 -7 3 C-5.68 2.67 -4.36 2.34 -3 2 C-3 2.66 -3 3.32 -3 4 C-2.34 3.67 -1.68 3.34 -1 3 C-0.67 2.01 -0.34 1.02 0 0 Z M104 9 C105 11 105 11 105 11 Z M105 13 C106 16 106 16 106 16 Z M72 15 C71.01 15.495 71.01 15.495 70 16 C70 16.66 70 17.32 70 18 C69.01 18.33 68.02 18.66 67 19 C67.99 19.33 68.98 19.66 70 20 C70.99 19.01 71.98 18.02 73 17 C72.67 16.34 72.34 15.68 72 15 Z M60.8125 19 C60.214375 19.66 59.61625 20.32 59 21 C61.90073181 21.67801034 61.90073181 21.67801034 65 22 C65.66 21.34 66.32 20.68 67 20 C66.34 20 65.68 20 65 20 C65.33 19.01 65.66 18.02 66 17 C62.87501834 16.6626154 62.87501834 16.6626154 60.8125 19 Z M126 21 C127.32 23.31 128.64 25.62 130 28 C131.33304698 25.10813214 131.33304698 25.10813214 130.0625 22.8125 C129.711875 22.214375 129.36125 21.61625 129 21 C128.01 21 127.02 21 126 21 Z M57 22 C57.33 22.66 57.66 23.32 58 24 C58.33 23.34 58.66 22.68 59 22 C58.34 22 57.68 22 57 22 Z M48 30 C47.34 31.32 46.68 32.64 46 34 C48.475 34.99 48.475 34.99 51 36 C51 35.34 51 34.68 51 34 C52.32 33.67 53.64 33.34 55 33 C55 32.34 55 31.68 55 31 C52.69 30.67 50.38 30.34 48 30 Z M51 36 C52 38 52 38 52 38 Z M159 39 C160.06645115 40.29633621 160.06645115 40.29633621 162.5625 40.0625 C163.366875 40.041875 164.17125 40.02125 165 40 C165 39.01 165 38.02 165 37 C162.53721199 37 161.14775881 37.85452863 159 39 Z M49 39 C49 40.32 49 41.64 49 43 C48.01 43.33 47.02 43.66 46 44 C46.33 44.66 46.66 45.32 47 46 C47.598125 45.505 48.19625 45.01 48.8125 44.5 C51 43 51 43 54 43 C54 42.01 54 41.02 54 40 C52.35 39.67 50.7 39.34 49 39 Z M44 42 C43.01 42.66 42.02 43.32 41 44 C41 44.66 41 45.32 41 46 C41.99 46 42.98 46 44 46 C44 45.34 44 44.68 44 44 C44.66 43.67 45.32 43.34 46 43 C45.34 42.67 44.68 42.34 44 42 Z M59 42 C60 44 60 44 60 44 Z M37 43 C35.30344828 44.78963709 35.30344828 44.78963709 34 47 C34.33 47.99 34.66 48.98 35 50 C35.66 49.67 36.32 49.34 37 49 C37.65772428 45.97065509 37.65772428 45.97065509 38 43 C37.67 43 37.34 43 37 43 Z M25 48 C26 51 26 51 26 51 Z M43 48 C43 48.66 43 49.32 43 50 C42.34 50 41.68 50 41 50 C41 50.66 41 51.32 41 52 C41.99 52.33 42.98 52.66 44 53 C44.99 51.35 45.98 49.7 47 48 C45.68 48 44.36 48 43 48 Z M19 50 C20 52 20 52 20 52 Z M55 50 C56 53 56 53 56 53 Z M30 53 C29.67 53.99 29.34 54.98 29 56 C29.66 56 30.32 56 31 56 C31.33 55.01 31.66 54.02 32 53 C31.34 53 30.68 53 30 53 Z M14 60 C15 63 15 63 15 63 Z M26 65 C24.14223235 68.13498292 23.79859524 70.37471432 24 74 C27.11332248 73.33131686 27.11332248 73.33131686 28.1875 70.9375 C28.455625 70.298125 28.72375 69.65875 29 69 C29.66 69 30.32 69 31 69 C31 68.34 31 67.68 31 67 C29.68 67 28.36 67 27 67 C26.67 66.34 26.34 65.68 26 65 Z M31 65 C32 67 32 67 32 67 Z M21 71 C20.34 72.98 19.68 74.96 19 77 C19.66 77 20.32 77 21 77 C21.33 75.02 21.66 73.04 22 71 C21.67 71 21.34 71 21 71 Z M16 73 C16 73.99 16 74.98 16 76 C16.66 75.67 17.32 75.34 18 75 C17.34 74.34 16.68 73.68 16 73 Z M32 79 C33 82 33 82 33 82 Z M11 82 C12 84 12 84 12 84 Z M14 83 C15 85 15 85 15 85 Z M18 83 C18 85.97 18 88.94 18 92 C18.99 92 19.98 92 21 92 C21 89.36 21 86.72 21 84 C20.01 83.67 19.02 83.34 18 83 Z M16 90 C17 92 17 92 17 92 Z M15 93 C16 96 16 96 16 96 Z M16 99 C17 102 17 102 17 102 Z M-3 112 C-3 113.65 -3 115.3 -3 117 C-2.01 117.495 -2.01 117.495 -1 118 C-1.33 116.02 -1.66 114.04 -2 112 C-2.33 112 -2.66 112 -3 112 Z M1 117 C2 119 2 119 2 119 Z M19 118 C19 120.31 19 122.62 19 125 C19.66 124.67 20.32 124.34 21 124 C20.67 122.68 20.34 121.36 20 120 C20.66 119.67 21.32 119.34 22 119 C21.01 118.67 20.02 118.34 19 118 Z " fill="#207343" transform="translate(780,417)"/>
<path d="M0 0 C0.99 1.485 0.99 1.485 2 3 C4.56282742 3.72965366 4.56282742 3.72965366 7 4 C6.505 2.515 6.505 2.515 6 1 C7.66721196 -0.66721196 9.58059707 -0.33025454 11.875 -0.4375 C20.29840263 -0.34998413 26.83031705 3.73920725 32.9375 9.3125 C39.28561173 16.33204663 40.650148 23.17557063 40.40625 32.53515625 C39.82835276 37.46395292 38.26518818 41.6111979 36 46 C34.20841511 46.02696365 32.41671527 46.04637917 30.625 46.0625 C29.12839844 46.07990234 29.12839844 46.07990234 27.6015625 46.09765625 C25 46 25 46 23 45 C23.165 44.113125 23.33 43.22625 23.5 42.3125 C24.00268793 38.65113122 24.20020267 35.00583436 24.3125 31.3125 C24.34988281 30.21550781 24.38726562 29.11851562 24.42578125 27.98828125 C23.81012429 23.66738608 21.66662779 22.2587119 18.32421875 19.734375 C14.0819603 17.1829451 11.05810377 16.44820686 6 17 C2.67813829 17.91114536 2.67813829 17.91114536 0 19 C-0.495 18.01 -0.495 18.01 -1 17 C-2.32 17.33 -3.64 17.66 -5 18 C-4.505 19.98 -4.505 19.98 -4 22 C-4.91523438 22.78503906 -5.83046875 23.57007813 -6.7734375 24.37890625 C-7.97463488 25.43933831 -9.17511835 26.50057942 -10.375 27.5625 C-10.97828125 28.07619141 -11.5815625 28.58988281 -12.203125 29.11914062 C-17.19436223 33.58352504 -18.5964503 37.4173754 -19.3515625 44.12109375 C-18.20726739 53.49159926 -4.80695123 63.80703317 2.22900391 69.68652344 C5.659555 72.23082518 9.43382667 73.62804606 13.43359375 75.0234375 C18.28293274 76.86869587 21.39413496 80.38368318 25 84 C24.99097656 83.41734375 24.98195313 82.8346875 24.97265625 82.234375 C25.43866082 69.34833553 34.16563607 59.61813824 43 51 C50.07518754 46.28320831 60.73325962 46.03029438 69 47 C73.88590547 49.30970077 76.87840904 52.68485956 80 57 C80 57.99 80 58.98 80 60 C77.36 61.32 74.72 62.64 72 64 C72 64.99 72 65.98 72 67 C74.97 67 77.94 67 81 67 C80.855625 67.59683594 80.71125 68.19367188 80.5625 68.80859375 C78.31069738 79.33264351 76.23920988 94.31552211 82 104 C84.28496007 106.22922934 86.17578991 107.58789495 89 109 C89 110.32 89 111.64 89 113 C85.86501708 114.85776765 83.62528568 115.20140476 80 115 C80 114.34 80 113.68 80 113 C79.13375 113.12375 78.2675 113.2475 77.375 113.375 C73.17677362 112.9085304 71.93638877 111.5493268 69.1015625 108.60546875 C68 107 68 107 68 104 C68.66 104 69.32 104 70 104 C69.505 103.113125 69.01 102.22625 68.5 101.3125 C67.05621326 98.12413762 66.69840078 96.41812454 67 93 C66.01 93.33 65.02 93.66 64 94 C64 95.98 64 97.96 64 100 C64.99 100.33 65.98 100.66 67 101 C67 101.66 67 102.32 67 103 C65.90171875 103.17015625 65.90171875 103.17015625 64.78125 103.34375 C61.92458297 104.01779503 59.99811609 104.98705645 57.5 106.5 C52.17038753 109.72779347 47.21590404 110.52677153 41 110 C34.40790199 107.99426475 30.35109335 103.93688511 27 98 C26.33984375 95.75 26.33984375 95.75 26 94 C25.52691406 94.43570313 25.05382812 94.87140625 24.56640625 95.3203125 C10.34076229 108.13171116 -1.30003566 109.97081285 -20 109 C-34.92720628 108.10969112 -46.94006047 103.07782922 -60 96 C-60.6801416 95.63487305 -61.3602832 95.26974609 -62.06103516 94.89355469 C-67.60269489 91.83818441 -70.88955464 89.02287903 -73.125 82.9375 C-73 80 -73 80 -70.75 77.1875 C-65.95815038 73.37580144 -61.65026978 73.81695291 -55.8125 73.8125 C-54.98685547 73.80025391 -54.16121094 73.78800781 -53.31054688 73.77539062 C-47.88388339 73.76256163 -43.15712986 74.24202028 -38 76 C-37.67 76.99 -37.34 77.98 -37 79 C-37.88522339 79.029729 -37.88522339 79.029729 -38.78833008 79.06005859 C-41.46350096 79.15534659 -44.13789498 79.26500939 -46.8125 79.375 C-47.74126953 79.4059375 -48.67003906 79.436875 -49.62695312 79.46875 C-50.51962891 79.50742187 -51.41230469 79.54609375 -52.33203125 79.5859375 C-53.15421143 79.6173584 -53.9763916 79.6487793 -54.82348633 79.68115234 C-57.28952937 79.88373622 -57.28952937 79.88373622 -60 82 C-59.65455161 84.5045008 -59.27191218 85.73690292 -57.43359375 87.515625 C-54.2318757 89.46851883 -50.93260746 90.15539877 -47.3125 90.9375 C-41.89508083 92.18649912 -36.9542315 93.58399978 -31.9921875 96.16796875 C-26.81203431 98.33144449 -21.09423388 98.23913483 -15.5625 98.3125 C-14.83740234 98.34150391 -14.11230469 98.37050781 -13.36523438 98.40039062 C-7.79411798 98.46546207 -4.55660015 97.23881733 0 94 C1.41774107 91.16024942 1.41774107 91.16024942 1 88 C-2.52387591 80.95224819 -7.97153342 78.48280714 -14.75 75.25 C-23.79017562 70.75240019 -31.04076862 66.28116853 -34.37890625 56.39453125 C-35.60842795 51.6542998 -36.2576387 47.15530813 -36.4375 42.25 C-36.49808594 41.10015625 -36.55867188 39.9503125 -36.62109375 38.765625 C-35.22917099 30.32654615 -28.47943368 23.9413799 -22.75 17.9375 C-22.09467285 17.24575684 -21.4393457 16.55401367 -20.76416016 15.84130859 C-8.49136118 3.06880773 -8.49136118 3.06880773 0 0 Z M-25 43 C-25.33 43.66 -25.66 44.32 -26 45 C-25.01 45 -24.02 45 -23 45 C-23 44.34 -23 43.68 -23 43 C-23.66 43 -24.32 43 -25 43 Z M58 53 C58 53.99 58 54.98 58 56 C59.32 55.67 60.64 55.34 62 55 C60.68 54.34 59.36 53.68 58 53 Z M44 54 C43.67 54.99 43.34 55.98 43 57 C44.32 57 45.64 57 47 57 C47 56.01 47 55.02 47 54 C46.01 54 45.02 54 44 54 Z M46 70 C43.2162827 73.76141313 41.81328001 77.40242068 41.375 82.0625 C42.18513046 87.16632193 44.13755446 89.6788473 48 93 C51.02843907 94.81706344 52.53590026 95.01894285 56.0625 94.875 C59.67030716 93.80033404 60.86724223 93.12296673 63 90 C63.69381597 87.3909196 64.18767174 84.81140374 64.60546875 82.14453125 C65 80 65 80 66 79 C66.60484446 72.27692119 66.23314535 66.94898744 63 61 C61.96876688 59.772002 61.96876688 59.772002 59.78515625 59.65625 C54.00870729 60.36919181 49.8248278 65.89272338 46 70 Z M36 74 C36 74.66 36 75.32 36 76 C36.66 76 37.32 76 38 76 C38 75.34 38 74.68 38 74 C37.34 74 36.68 74 36 74 Z " fill="#207343" transform="translate(383,632)"/>
<path d="M0 0 C1.06463546 1.37839453 2.1052677 2.77556297 3.125 4.1875 C5.54239087 7.24312724 6.61116638 7.92612161 10.515625 8.66796875 C13.03631189 8.80318778 15.56163198 8.87250183 18.0859375 8.8671875 C19.04757812 8.91101563 20.00921875 8.95484375 21 9 C21.495 9.99 21.495 9.99 22 11 C22.61875 10.505 23.2375 10.01 23.875 9.5 C28.26029741 7.39505724 32.21713261 7.74924773 37 8 C37.495 8.99 37.495 8.99 38 10 C38.55945312 9.67644531 39.11890625 9.35289062 39.6953125 9.01953125 C43.67032345 7.2610942 47.7349227 7.53727935 52 8 C55.625 9.5 55.625 9.5 58 11 C58.33 10.34 58.66 9.68 59 9 C59.95261719 9.01160156 60.90523437 9.02320313 61.88671875 9.03515625 C63.14097656 9.04417969 64.39523437 9.05320312 65.6875 9.0625 C67.54955078 9.07990234 67.54955078 9.07990234 69.44921875 9.09765625 C72.82374952 9.10719928 72.82374952 9.10719928 75.375 8.515625 C79.34389202 7.73602121 83.27679491 7.7346094 87.3125 7.6875 C88.12912109 7.65849609 88.94574219 7.62949219 89.78710938 7.59960938 C95.67054215 7.53866545 100.09846561 8.65845304 105 12 C110.30663029 18.33372002 109.1283874 27.64758246 109.0625 35.4375 C109.05798828 36.45521484 109.05347656 37.47292969 109.04882812 38.52148438 C109.03712454 41.01434858 109.01919192 43.5071822 109 46 C104.38 46 99.76 46 95 46 C94.67 45.34 94.34 44.68 94 44 C93.30003906 44.48855469 92.60007812 44.97710938 91.87890625 45.48046875 C88.60078652 47.21071105 86.61497531 47.37293891 82.9375 47.3125 C81.91527344 47.30863281 80.89304687 47.30476562 79.83984375 47.30078125 C77.05867366 47.0062144 75.37385534 46.42886736 73 45 C72.78085938 45.59167969 72.56171875 46.18335938 72.3359375 46.79296875 C70.07281513 52.43237532 68.17075223 55.71856108 63 59 C53.89646917 62.29610599 44.16908801 61.82125785 35 59 C35 55.7 35 52.4 35 49 C37.76276177 49.52268466 40.3260876 50.10869587 43 51 C44.64176695 51.14252401 46.28982655 51.22026755 47.9375 51.25 C48.79214844 51.27578125 49.64679688 51.3015625 50.52734375 51.328125 C53.54317573 50.92791981 54.88682693 50.17691147 57 48 C57 46.68 57 45.36 57 44 C56.46117187 44.32226562 55.92234375 44.64453125 55.3671875 44.9765625 C50.80862825 46.94742475 45.86194702 46.51487106 41 46 C36.5750257 44.02456504 33.99908425 41.46776461 31.75 37.12890625 C29.6738156 31.23557031 29.57343593 25.03295034 31 19 C26.70414285 19.30441421 26.70414285 19.30441421 23.33276367 21.72167969 C21.76322422 24.40476123 21.57818383 26.11047628 21.48828125 29.203125 C21.43510742 30.67265625 21.43510742 30.67265625 21.38085938 32.171875 C21.35830078 33.18765625 21.33574219 34.2034375 21.3125 35.25 C21.27833984 36.28125 21.24417969 37.3125 21.20898438 38.375 C21.12662785 40.91628699 21.06163407 43.45812601 21 46 C16.38 46 11.76 46 7 46 C6.67 42.7 6.34 39.4 6 36 C5.195625 37.0725 4.39125 38.145 3.5625 39.25 C-1.1827381 44.64032807 -5.88135898 46.85263269 -13.04296875 47.37890625 C-21.88130955 47.74725209 -29.81779705 47.53873651 -36.76171875 41.45703125 C-42.35555788 35.53812641 -44.15016432 29.60974361 -44.375 21.5625 C-44.15180516 13.83995862 -43.10659217 7.90289717 -37.75 2.125 C-28.21909123 -6.52490039 -10.4791141 -8.18897658 0 0 Z M-27 10 C-30.07199706 15.3233162 -30.59087171 21.27672333 -29.3125 27.25 C-28.00590422 30.98313079 -26.78229897 33.21770103 -24 36 C-19.49440359 37.50186547 -15.65786663 37.71589695 -11.25 35.8125 C-7.33104911 32.65556734 -5.92128291 29.58782034 -5.1875 24.6875 C-4.71536657 18.77599607 -5.59868797 14.05817705 -9 9.0625 C-11.77045438 6.20546892 -13.43820105 5.81121711 -17.3125 5.6875 C-21.75260569 5.73746904 -23.92356275 6.64388664 -27 10 Z M46 19 C43.29967832 22.51041819 43.47063913 26.76511301 44 31 C44.93849513 33.98341617 44.93849513 33.98341617 47 36 C50.14477574 37.00365183 52.08357433 37.28001895 55.25 36.3125 C57.49204329 34.63096753 58.1496288 33.69284213 59 31 C59.44250911 26.35365434 59.64079656 24.11546068 57.3125 20.0625 C53.55861398 16.71443949 50.20343143 15.95613586 46 19 Z M72 19 C72 21.31 72 23.62 72 26 C73.010625 25.525625 74.02125 25.05125 75.0625 24.5625 C81.39780234 22.1337765 88.29383865 22.25322745 95 22 C94.67 20.68 94.34 19.36 94 18 C86.22664776 15.04612615 79.86764638 16.94468788 72 19 Z M82 33 C83.02327974 36.63303063 83.02327974 36.63303063 85.75 39 C89.21888337 39 91.16547301 37.95267415 94 36 C94.97474816 32.91038542 94.97474816 32.91038542 95 30 C93.39667209 29.91878076 91.79215974 29.86070866 90.1875 29.8125 C89.29417969 29.77769531 88.40085937 29.74289062 87.48046875 29.70703125 C84.58352485 30.04918998 83.77444972 30.75393573 82 33 Z " fill="#F68711" transform="translate(1090,700)"/>
<path d="M0 0 C4.29 0 8.58 0 13 0 C13 3.63 13 7.26 13 11 C20.59 11 28.18 11 36 11 C36 23.21 36 35.42 36 48 C31.318125 48.061875 26.63625 48.12375 21.8125 48.1875 C19.60977417 48.22846802 19.60977417 48.22846802 17.36254883 48.27026367 C15.61494263 48.28150269 15.61494263 48.28150269 13.83203125 48.29296875 C12.64327393 48.3086792 11.4545166 48.32438965 10.22973633 48.34057617 C6.68028407 47.96628591 4.8386098 47.12035306 2 45 C-0.92065967 40.42663171 -0.22113223 34.91931179 -0.125 29.6875 C-0.11597656 28.75615234 -0.10695313 27.82480469 -0.09765625 26.86523438 C-0.07418263 24.5765564 -0.04134729 22.28841328 0 20 C-1.485 20.495 -1.485 20.495 -3 21 C-3 29.91 -3 38.82 -3 48 C-7.29 48 -11.58 48 -16 48 C-16.33 47.34 -16.66 46.68 -17 46 C-17.69996094 46.48855469 -18.39992188 46.97710938 -19.12109375 47.48046875 C-22.39921348 49.21071105 -24.38502469 49.37293891 -28.0625 49.3125 C-29.08472656 49.30863281 -30.10695313 49.30476562 -31.16015625 49.30078125 C-33.94132634 49.0062144 -35.62614466 48.42886736 -38 47 C-38.33 47.33 -38.66 47.66 -39 48 C-41.59359322 48.08851529 -44.16039691 48.11525945 -46.75390625 48.09765625 C-47.52935287 48.0962413 -48.3047995 48.09482635 -49.10374451 48.09336853 C-51.59003494 48.08775345 -54.0762366 48.07519846 -56.5625 48.0625 C-58.24413933 48.05748694 -59.92578006 48.0529237 -61.60742188 48.04882812 C-65.73831566 48.03777913 -69.86914276 48.02050445 -74 48 C-74.67139381 43.34220546 -75.05468071 40.51885009 -72.3125 36.56982422 C-69.962887 34.07794949 -67.5302961 31.74554036 -65 29.4375 C-63.71222656 28.21063477 -63.71222656 28.21063477 -62.3984375 26.95898438 C-60.28541691 24.95161481 -58.14526254 22.97287537 -56 21 C-61.61 20.67 -67.22 20.34 -73 20 C-73 17.03 -73 14.06 -73 11 C-67.65136811 10.85432194 -62.30265796 10.71210237 -56.95385742 10.57275391 C-55.14361233 10.52514531 -53.33338961 10.47667691 -51.52319336 10.42724609 C-46.23238009 10.28309828 -40.9416306 10.15678878 -35.64984131 10.05419922 C-33.87015171 10.01779787 -32.09055817 9.97638403 -30.31109619 9.93017578 C-27.72436359 9.86522449 -25.1380115 9.82082087 -22.55078125 9.78125 C-21.77679489 9.75800659 -21.00280853 9.73476318 -20.20536804 9.71081543 C-15.37822336 9.66411415 -12.22544917 10.41127479 -8 13 C-7.505 13.495 -7.505 13.495 -7 14 C-6.67 13.01 -6.34 12.02 -6 11 C-4.02 11 -2.04 11 0 11 C0 7.37 0 3.74 0 0 Z M-49.5 30.125 C-50.22703125 30.86621094 -50.9540625 31.60742188 -51.703125 32.37109375 C-55.1454344 35.2886705 -55.1454344 35.2886705 -57 39 C-52.05 39 -47.1 39 -42 39 C-41.773125 37.411875 -41.54625 35.82375 -41.3125 34.1875 C-40.3378219 29.29337165 -40.3378219 29.29337165 -37.625 26.9375 C-32.83720627 25.22757367 -28.31516896 24.72953715 -23.25 24.4375 C-22.55261719 24.39431641 -21.85523438 24.35113281 -21.13671875 24.30664062 C-19.42468078 24.20110404 -17.71236439 24.1001009 -16 24 C-16.34786708 22.02463255 -16.34786708 22.02463255 -17 20 C-19.88090868 18.55954566 -22.41363865 18.79125946 -25.625 18.75 C-26.81351563 18.72421875 -28.00203125 18.6984375 -29.2265625 18.671875 C-38.46396995 19.47512782 -43.23502719 23.52357495 -49.5 30.125 Z M13 20 C12.94619422 22.79192205 12.90642331 25.5828141 12.875 28.375 C12.85824219 29.1690625 12.84148437 29.963125 12.82421875 30.78125 C12.80664527 32.85492015 12.89664832 34.92883241 13 37 C13.66 37.66 14.32 38.32 15 39 C17.64 39 20.28 39 23 39 C23 32.73 23 26.46 23 20 C19.7 20 16.4 20 13 20 Z M-29 34 C-28.62095792 37.29075996 -28.62095792 37.29075996 -27 40 C-23.62642666 40.50070321 -23.62642666 40.50070321 -20 40 C-17.46808501 37.81501244 -17.46808501 37.81501244 -16 35 C-16 34.01 -16 33.02 -16 32 C-17.60379341 31.94583812 -19.20811406 31.90713362 -20.8125 31.875 C-21.70582031 31.85179687 -22.59914063 31.82859375 -23.51953125 31.8046875 C-26.25402714 31.81714173 -26.25402714 31.81714173 -29 34 Z " fill="#F68711" transform="translate(1329,698)"/>
<path d="M0 0 C2 3 2 3 2 6 C1.34 6 0.68 6 0 6 C0.495 7.175625 0.495 7.175625 1 8.375 C2 11 2 11 2 13 C2.56847656 12.84402344 3.13695312 12.68804688 3.72265625 12.52734375 C8.79714438 11.24813222 12.82872714 10.60773423 18 12 C22.70492501 15.06384717 24.70119952 18.59378849 27.1875 23.4375 C31.75965898 31.97023657 37.12307425 40.12307425 44 47 C46.36509361 47.30059943 48.74441881 47.49515012 51.125 47.625 C52.40632812 47.69976563 53.68765625 47.77453125 55.0078125 47.8515625 C55.99523437 47.90054688 56.98265625 47.94953125 58 48 C58.33 46.68 58.66 45.36 59 44 C56.11964908 41.75972706 53.15133488 39.83827868 50 38 C50.33 37.01 50.66 36.02 51 35 C57.48237907 35.34727031 61.89309797 36.91193129 67 41 C68.57898053 44.15796107 68.81928171 47.60670636 68 51 C65.31941072 54.57070863 63.83952367 55.85340205 59.3984375 56.62890625 C58.05714611 56.63888239 56.71528528 56.61539132 55.375 56.5625 C54.31865356 56.53978027 54.31865356 56.53978027 53.2409668 56.51660156 C44.81185339 56.1594276 37.1944463 53.91038146 31 48 C28.49275774 44.57672886 26.21594411 41.01584118 23.9375 37.4375 C22.72405226 35.53613353 21.50423099 33.63881601 20.27734375 31.74609375 C19.74359131 30.90747803 19.20983887 30.0688623 18.65991211 29.20483398 C16.94535018 26.92740954 15.43286159 25.47661308 13 24 C9.94729537 23.84188612 9.94729537 23.84188612 7 25 C2.73567306 29.5428136 0.26641877 35.05698919 -2.46875 40.5859375 C-4.98913733 45.52096164 -7.75733101 50.33680097 -12 54 C-15.875 54.9375 -15.875 54.9375 -19 55 C-20.28853052 49.96574124 -19.72416058 47.52417934 -17.25 43 C-16.71890625 42.01 -16.1878125 41.02 -15.640625 40 C-14.5709884 38.04409308 -13.49198362 36.0932715 -12.40234375 34.1484375 C-10.70700235 30.34218354 -9.98922528 26.71493529 -9.3125 22.625 C-9.11817383 21.52091797 -9.11817383 21.52091797 -8.91992188 20.39453125 C-8.60491084 18.59780163 -8.30127185 16.79908437 -8 15 C-6.35 15 -4.7 15 -3 15 C-3 13.68 -3 12.36 -3 11 C-4.0725 11.0825 -5.145 11.165 -6.25 11.25 C-10 11 -10 11 -12.3125 9.0625 C-12.869375 8.381875 -13.42625 7.70125 -14 7 C-18.08512519 4.95743741 -22.9890179 6.52152495 -27.265625 7.5390625 C-29.67467099 8.42237936 -31.15322369 9.20524556 -33 11 C-35.92313865 17.57215736 -36.66409356 24.88292182 -36 32 C-35.94199219 32.8353125 -35.88398437 33.670625 -35.82421875 34.53125 C-35.02996957 40.88524344 -32.88995186 43.80472511 -27.875 47.72265625 C-26.03020728 49.04072103 -26.03020728 49.04072103 -24 50 C-24.33 51.65 -24.66 53.3 -25 55 C-30.37000161 54.80111105 -33.53331127 53.88528746 -38.0625 50.9375 C-42.29365709 48.23965213 -44.88469056 47.22787782 -50 48 C-51.7015625 48.495 -51.7015625 48.495 -53.4375 49 C-60.52307969 50.98893465 -66.53627168 50.44082089 -73 47 C-77.91775984 43.11153873 -82.32386506 37.17836198 -83.34765625 30.8515625 C-83.40197329 26.80106322 -82.66696236 23.00177414 -82 19 C-77.71 19 -73.42 19 -69 19 C-69.33 20.32 -69.66 21.64 -70 23 C-70.50409511 28.0078957 -70.55757693 31.86419515 -68.3125 36.4375 C-64.63091268 40.51709676 -61.92360282 42.15824277 -56.4375 42.5 C-54.16957579 42.70807483 -54.16957579 42.70807483 -52 42 C-45.2104784 35.54814554 -45.93236707 24.00271444 -45.6875 15.1875 C-45.55443012 12.38265248 -45.55443012 12.38265248 -46 10 C-48.93039595 8.0464027 -49.7626951 7.74671438 -53.0625 7.5 C-57 7 -57 7 -59 5 C-59.020625 5.886875 -59.04125 6.77375 -59.0625 7.6875 C-60.17205676 11.6079339 -61.26863582 12.96234622 -64.61328125 15.1640625 C-69.58004228 16.9036482 -74.90052706 15.77450642 -80 15 C-76.41706674 7.29669348 -72.35034748 2.16801345 -64.30078125 -1.09375 C-60.50784291 -2.13512479 -56.96362138 -2.33095374 -53.0625 -2.3125 C-52.04639648 -2.33666992 -52.04639648 -2.33666992 -51.00976562 -2.36132812 C-44.43185855 -2.36763484 -39.93872189 -0.77372428 -35.0625 3.6875 C-34.0415625 4.8321875 -34.0415625 4.8321875 -33 6 C-32.195625 5.4225 -31.39125 4.845 -30.5625 4.25 C-21.45123367 -1.83139154 -10.02041002 -6.44169215 0 0 Z M-66 2 C-66.33 2.66 -66.66 3.32 -67 4 C-66.34 4 -65.68 4 -65 4 C-65.33 3.34 -65.66 2.68 -66 2 Z " fill="#207343" transform="translate(844,683)"/>
<path d="M0 0 C1.48831242 0.00667405 2.97660807 0.01863442 4.46484375 0.03515625 C5.22345703 0.03966797 5.98207031 0.04417969 6.76367188 0.04882812 C8.64326246 0.06064945 10.52281274 0.07858547 12.40234375 0.09765625 C17.45613938 10.47251556 21.36204323 21.30012855 25.40234375 32.09765625 C25.73234375 25.82765625 26.06234375 19.55765625 26.40234375 13.09765625 C30.69234375 13.09765625 34.98234375 13.09765625 39.40234375 13.09765625 C39.89734375 14.58265625 39.89734375 14.58265625 40.40234375 16.09765625 C40.83546875 15.62328125 41.26859375 15.14890625 41.71484375 14.66015625 C44.458025 12.12017361 47.02048506 11.97664217 50.58984375 12.03515625 C52.47703125 12.06609375 52.47703125 12.06609375 54.40234375 12.09765625 C54.40234375 8.79765625 54.40234375 5.49765625 54.40234375 2.09765625 C59.02234375 2.09765625 63.64234375 2.09765625 68.40234375 2.09765625 C68.40234375 5.72765625 68.40234375 9.35765625 68.40234375 13.09765625 C72.36234375 13.09765625 76.32234375 13.09765625 80.40234375 13.09765625 C80.40234375 16.06765625 80.40234375 19.03765625 80.40234375 22.09765625 C76.44234375 22.09765625 72.48234375 22.09765625 68.40234375 22.09765625 C68.89734375 31.00765625 68.89734375 31.00765625 69.40234375 40.09765625 C72.70234375 40.42765625 76.00234375 40.75765625 79.40234375 41.09765625 C79.40234375 44.06765625 79.40234375 47.03765625 79.40234375 50.09765625 C76.4854285 50.1516732 73.56951651 50.19133691 70.65234375 50.22265625 C69.82734375 50.23941406 69.00234375 50.25617187 68.15234375 50.2734375 C67.353125 50.27988281 66.55390625 50.28632812 65.73046875 50.29296875 C64.99731445 50.30344238 64.26416016 50.31391602 63.50878906 50.32470703 C61.03201608 50.05773915 59.4967563 49.44072749 57.40234375 48.09765625 C53.02668953 40.44026137 54.1402241 31.64081517 54.40234375 23.09765625 C53.13132812 23.0821875 51.8603125 23.06671875 50.55078125 23.05078125 C49.83583496 23.04208008 49.12088867 23.03337891 48.38427734 23.02441406 C45.87891266 23.1169996 44.39544442 23.56450189 42.40234375 25.09765625 C40.55210112 28.13632072 40.11745575 30.55126154 39.98828125 34.08203125 C39.9526709 34.92475586 39.91706055 35.76748047 39.88037109 36.63574219 C39.84637207 37.69567383 39.81237305 38.75560547 39.77734375 39.84765625 C39.59171875 44.92140625 39.59171875 44.92140625 39.40234375 50.09765625 C32.14234375 50.09765625 24.88234375 50.09765625 17.40234375 50.09765625 C14.40234375 44.09765625 14.40234375 44.09765625 14.40234375 41.09765625 C7.80234375 41.09765625 1.20234375 41.09765625 -5.59765625 41.09765625 C-6.58765625 44.06765625 -7.57765625 47.03765625 -8.59765625 50.09765625 C-13.21765625 50.09765625 -17.83765625 50.09765625 -22.59765625 50.09765625 C-20.678463 43.48233853 -18.54760067 37.04546507 -16.05859375 30.625 C-15.73226959 29.7758754 -15.40594543 28.92675079 -15.06973267 28.05189514 C-14.38746056 26.27910948 -13.70339293 24.50701386 -13.01757812 22.7355957 C-11.96386465 20.01243572 -10.91710583 17.28667313 -9.87109375 14.56054688 C-9.2048333 12.83187463 -8.53818112 11.10335331 -7.87109375 9.375 C-7.55755951 8.55845444 -7.24402527 7.74190887 -6.92098999 6.90061951 C-4.28733155 0.11637708 -4.28733155 0.11637708 0 0 Z M3.40234375 15.09765625 C2.56514992 17.38797936 1.73245085 19.67976582 0.90234375 21.97265625 C0.66386719 22.62363281 0.42539062 23.27460937 0.1796875 23.9453125 C-1.14643158 27.43223214 -1.14643158 27.43223214 -1.59765625 31.09765625 C2.36234375 31.09765625 6.32234375 31.09765625 10.40234375 31.09765625 C9.61970013 28.61530188 8.82679098 26.13709529 8.02734375 23.66015625 C7.805625 22.95310547 7.58390625 22.24605469 7.35546875 21.51757812 C6.76131769 19.69143735 6.08684756 17.89188593 5.40234375 16.09765625 C4.74234375 15.76765625 4.08234375 15.43765625 3.40234375 15.09765625 Z " fill="#F68711" transform="translate(957.59765625,695.90234375)"/>
<path d="M0 0 C0.66 0 1.32 0 2 0 C1.56740841 3.53283128 1.08905233 6.74561036 -0.08984375 10.11328125 C-1.24318687 15.03850186 -0.80120238 19.14923338 -0.1875 24.125 C-0.09146484 25.00542969 0.00457031 25.88585937 0.10351562 26.79296875 C0.56616539 30.91024112 1.13997292 34.94445944 2 39 C2 39.66 2 40.32 2 41 C2.928125 41.86625 2.928125 41.86625 3.875 42.75 C7.34185747 46.42079026 7.97947414 50.26638663 8.3671875 55.15234375 C8.88427258 60.02045036 10.26797674 64.29453869 11.9375 68.875 C14.91950727 77.43083614 17.49596726 85.82460576 17 95 C16.67 95 16.34 95 16 95 C16 98.96 16 102.92 16 107 C16.33 104.03 16.66 101.06 17 98 C20.73671267 103.60506901 19.54345615 110.59476485 18.27734375 116.99609375 C16.52953942 124.83149498 14.0818062 132.04085501 10 139 C9.34 139 8.68 139 8 139 C7.75765625 139.71285156 7.5153125 140.42570313 7.265625 141.16015625 C3.92389916 148.65841146 -2.86022573 155.59115124 -9 161 C-9.99 161 -10.98 161 -12 161 C-12 161.99 -12 162.98 -12 164 C-12.99 163.67 -13.98 163.34 -15 163 C-14.67 162.34 -14.34 161.68 -14 161 C-15.32 161.33 -16.64 161.66 -18 162 C-18.66 164.31 -19.32 166.62 -20 169 C-19.34 169 -18.68 169 -18 169 C-17.67 167.68 -17.34 166.36 -17 165 C-16.34 165 -15.68 165 -15 165 C-15 165.99 -15 166.98 -15 168 C-14.01 167.01 -14.01 167.01 -13 166 C-12.55011719 165.55269531 -12.10023438 165.10539063 -11.63671875 164.64453125 C-10.40002209 163.4019315 -9.17553706 162.14716167 -7.95703125 160.88671875 C-7.24933594 160.16097656 -6.54164063 159.43523437 -5.8125 158.6875 C-4.80123047 157.64142578 -4.80123047 157.64142578 -3.76953125 156.57421875 C-2 155 -2 155 0 155 C0.061875 154.4225 0.12375 153.845 0.1875 153.25 C1 151 1 151 3.3125 149.1875 C6.6812801 146.44546969 8.00927833 143.83398248 10 140 C10.66 140 11.32 140 12 140 C12.2475 139.360625 12.495 138.72125 12.75 138.0625 C13.75889745 135.59070124 14.82820846 133.17684089 15.9375 130.75 C16.62680013 129.16744952 17.31433272 127.58412786 18 126 C18.30550781 125.35675781 18.61101563 124.71351563 18.92578125 124.05078125 C25.21136778 108.88792085 20.51028504 88.83228319 14.75 74.25 C14.46753418 73.58210449 14.18506836 72.91420898 13.89404297 72.22607422 C11.93483801 67.48716342 11.93483801 67.48716342 12.328125 64.546875 C12.66070313 63.78117187 12.66070313 63.78117187 13 63 C22.02188141 75.24398192 24.51361723 89.67654957 24.375 104.5625 C24.38660156 105.81224609 24.39820313 107.06199219 24.41015625 108.34960938 C24.35683522 125.26126328 17.93413155 139.87492235 6 152 C5.34 152 4.68 152 4 152 C4 152.66 4 153.32 4 154 C2.89307804 155.14151327 1.77823402 156.27602896 0.6328125 157.37890625 C-1.35997242 159.35738889 -3.24435668 161.4146372 -5.125 163.5 C-5.78757812 164.2321875 -6.45015625 164.964375 -7.1328125 165.71875 C-9.08275879 167.98571947 -9.08275879 167.98571947 -10.6171875 170.71875 C-12 173 -12 173 -14 174 C-19.23934426 174.44590164 -19.23934426 174.44590164 -21.8125 172.9375 C-24.1351944 169.14784072 -24.09550737 165.01237811 -23.6875 160.6875 C-24.23438377 154.23427155 -28.33283318 149.31870328 -32.0390625 144.1640625 C-34.17524695 140.71723102 -35.45162556 137.28570499 -36.625 133.4375 C-38.18304812 128.39968037 -38.18304812 128.39968037 -40.1015625 123.4921875 C-46.57483705 105.5358868 -39.50378221 83.47633432 -32 67 C-29.01250604 61.43376826 -29.01250604 61.43376826 -27 59 C-26.34 59 -25.68 59 -25 59 C-24.74992188 58.42894531 -24.49984375 57.85789062 -24.2421875 57.26953125 C-22.82671187 54.68339495 -21.14427091 52.8324991 -19.125 50.6875 C-13.7345459 44.73270233 -10.52304958 38.17192235 -7 31 C-6.34 31 -5.68 31 -5 31 C-5.185625 29.88625 -5.37125 28.7725 -5.5625 27.625 C-6 24 -6 24 -5 22 C-5.99 21.67 -6.98 21.34 -8 21 C-8 20.01 -8 19.02 -8 18 C-6.68 17.67 -5.36 17.34 -4 17 C-4.185625 15.88625 -4.37125 14.7725 -4.5625 13.625 C-5 10 -5 10 -4 8 C-3.34 8 -2.68 8 -2 8 C-1.855625 7.05125 -1.71125 6.1025 -1.5625 5.125 C-1 2 -1 2 0 0 Z M-4 24 C-4.04898438 24.65226562 -4.09796875 25.30453125 -4.1484375 25.9765625 C-4.57242229 30.93279853 -5.15665573 35.33019451 -7 40 C-4.20223465 38.83708756 -4.20223465 38.83708756 -2 36 C-1.84835817 31.92733363 -2.36192646 28.01796803 -3 24 C-3.33 24 -3.66 24 -4 24 Z M-2 36 C-2.33 37.32 -2.66 38.64 -3 40 C-2.34 40 -1.68 40 -1 40 C-1.33 38.68 -1.66 37.36 -2 36 Z M-8 40 C-8 43 -8 43 -8 43 Z M-4 40 C-4.55429687 40.78246094 -5.10859375 41.56492187 -5.6796875 42.37109375 C-6.76636719 43.88896484 -6.76636719 43.88896484 -7.875 45.4375 C-8.59429688 46.44683594 -9.31359375 47.45617187 -10.0546875 48.49609375 C-12 51 -12 51 -14 52 C-14.33 51.01 -14.66 50.02 -15 49 C-18.32332163 52.14368262 -20.74833645 55.03707215 -23 59 C-24.62122925 61.3113747 -26.24592298 63.61931158 -27.890625 65.9140625 C-28.25671875 66.60242188 -28.6228125 67.29078125 -29 68 C-28.67 68.99 -28.34 69.98 -28 71 C-27.67 71 -27.34 71 -27 71 C-27.34933594 71.82242188 -27.69867187 72.64484375 -28.05859375 73.4921875 C-30.87251605 80.39546432 -32.81437693 86.52445289 -33 94 C-33.66 94 -34.32 94 -35 94 C-33.68 88.06 -32.36 82.12 -31 76 C-33.72176719 77.36088359 -34.00246552 79.14023517 -34.95629883 81.91064453 C-41.22063565 102.06904714 -39.32502559 122.04920987 -30 141 C-29.03334183 142.35770018 -28.04172334 143.69900412 -27 145 C-27.28698101 143.31169683 -27.57985026 141.62439428 -27.875 139.9375 C-28.03742187 138.99777344 -28.19984375 138.05804687 -28.3671875 137.08984375 C-29.07072842 133.65465319 -30.00151805 130.36043716 -31 127 C-30.74831055 127.69037354 -30.49662109 128.38074707 -30.23730469 129.09204102 C-29.08136285 132.25127987 -27.91577194 135.40687596 -26.75 138.5625 C-26.35425781 139.64853516 -25.95851563 140.73457031 -25.55078125 141.85351562 C-23.43355261 147.56309121 -21.23196319 152.83330654 -18 158 C-10.50088513 157.86365246 -6.28172443 155.25342948 -1 150 C4.12717778 144.16208654 4.12717778 144.16208654 6 137 C6.66 137 7.32 137 8 137 C8 136.34 8 135.68 8 135 C4.37 134.01 0.74 133.02 -3 132 C-3 131.34 -3 130.68 -3 130 C-3.99 130 -4.98 130 -6 130 C-6 129.34 -6 128.68 -6 128 C-6.433125 127.566875 -6.86625 127.13375 -7.3125 126.6875 C-12.80039859 121.19960141 -15.12735232 113.34861804 -15.4375 105.75 C-15.15442646 96.60157771 -12.73826845 87.40957243 -6 81 C-5.278125 80.278125 -4.55625 79.55625 -3.8125 78.8125 C0.17943559 76.23991929 4.42810998 75.17182424 9 74 C9.66 74.66 10.32 75.32 11 76 C10.38908378 69.88246909 8.62458724 64.46218422 6.5625 58.6875 C6.09360352 57.32915039 6.09360352 57.32915039 5.61523438 55.94335938 C4.02111249 51.0454894 4.02111249 51.0454894 1 47 C0.01 47.33 -0.98 47.66 -2 48 C-1.95875 47.05125 -1.9175 46.1025 -1.875 45.125 C-1.65026182 41.89755144 -1.65026182 41.89755144 -4 40 Z M-1 40 C0 43 0 43 0 43 Z M-10 43 C-9 45 -9 45 -9 45 Z M-30 71 C-29 73 -29 73 -29 73 Z M11 77 C12 80 12 80 12 80 Z M4 80 C4 81.32 4 82.64 4 84 C2.02 84.99 2.02 84.99 0 86 C1.485 86.99 1.485 86.99 3 88 C5.0399719 86.63676257 5.0399719 86.63676257 7 85 C7 84.34 7 83.68 7 83 C6.34 83 5.68 83 5 83 C4.67 82.01 4.34 81.02 4 80 Z M12 80 C12 81.65 12 83.3 12 85 C12.33 85 12.66 85 13 85 C13 83.35 13 81.7 13 80 C12.67 80 12.34 80 12 80 Z M-4 84 C-3.67 84.66 -3.34 85.32 -3 86 C-2.67 85.34 -2.34 84.68 -2 84 C-2.66 84 -3.32 84 -4 84 Z M13 85 C14 89 14 89 14 89 Z M-7 87 C-7.33 87.66 -7.66 88.32 -8 89 C-7.01 88.67 -6.02 88.34 -5 88 C-5.66 87.67 -6.32 87.34 -7 87 Z M14 90 C15 92 15 92 15 92 Z M9 91 C8.34 91.66 7.68 92.32 7 93 C7.66 93 8.32 93 9 93 C9 93.66 9 94.32 9 95 C9.66 95 10.32 95 11 95 C10.67 93.68 10.34 92.36 10 91 C9.67 91 9.34 91 9 91 Z M5 93 C4.01 93.99 3.02 94.98 2 96 C2.33 96.66 2.66 97.32 3 98 C5.64 98 8.28 98 11 98 C11 97.34 11 96.68 11 96 C10.195625 95.87625 9.39125 95.7525 8.5625 95.625 C7.716875 95.41875 6.87125 95.2125 6 95 C5.67 94.34 5.34 93.68 5 93 Z M-8 96 C-8 96.99 -8 97.98 -8 99 C-7.34 99 -6.68 99 -6 99 C-5.67 100.32 -5.34 101.64 -5 103 C-4.32041397 100.60280568 -4.32041397 100.60280568 -4 98 C-4.66 97.34 -5.32 96.68 -6 96 C-6.66 96 -7.32 96 -8 96 Z M1 98 C0.67 98.99 0.34 99.98 0 101 C0.66 101 1.32 101 2 101 C1.67 100.01 1.34 99.02 1 98 Z M-12 100 C-11 102 -11 102 -11 102 Z M0 102 C0 103.65 0 105.3 0 107 C0.33 107 0.66 107 1 107 C1 105.35 1 103.7 1 102 C0.67 102 0.34 102 0 102 Z M-9 103 C-8.67 104.32 -8.34 105.64 -8 107 C-7.34 107 -6.68 107 -6 107 C-6.33 105.68 -6.66 104.36 -7 103 C-7.66 103 -8.32 103 -9 103 Z M-12 107 C-12 107.66 -12 108.32 -12 109 C-11.34 109 -10.68 109 -10 109 C-9.67 109.99 -9.34 110.98 -9 112 C-9 110.35 -9 108.7 -9 107 C-9.99 107 -10.98 107 -12 107 Z M5 109 C5 109.66 5 110.32 5 111 C4.01 111.495 4.01 111.495 3 112 C5.85778033 112.68493373 5.85778033 112.68493373 9 113 C9.99 112.34 10.98 111.68 12 111 C9.69 110.34 7.38 109.68 5 109 Z M-7 110 C-6.67 110.99 -6.34 111.98 -6 113 C-5.67 112.01 -5.34 111.02 -5 110 C-5.66 110 -6.32 110 -7 110 Z M14 113 C14 114.65 14 116.3 14 118 C14.33 118 14.66 118 15 118 C15 116.35 15 114.7 15 113 C14.67 113 14.34 113 14 113 Z M-4 117 C-3.29660434 119.50965614 -3.29660434 119.50965614 -2 122 C0.04105639 122.88693303 0.04105639 122.88693303 2 123 C0.95125002 120.37812506 0.35068687 119.20628639 -2.125 117.75 C-3.053125 117.37875 -3.053125 117.37875 -4 117 Z M13 119 C14 122 14 122 14 122 Z M12 122 C13 125 13 125 13 125 Z M4 123 C4 123.66 4 124.32 4 125 C4.99 125.33 5.98 125.66 7 126 C7 125.34 7 124.68 7 124 C6.01 123.67 5.02 123.34 4 123 Z M0 125 C1 127 1 127 1 127 Z M11 126 C10.67 127.32 10.34 128.64 10 130 C10.66 128.68 11.32 127.36 12 126 C11.67 126 11.34 126 11 126 Z M9 130 C10 132 10 132 10 132 Z M8 133 C9 135 9 135 9 135 Z M-27 145 C-26 147 -26 147 -26 147 Z M-26 147 C-25.34 148.32 -24.68 149.64 -24 151 C-24.33 149.68 -24.66 148.36 -25 147 C-25.33 147 -25.66 147 -26 147 Z " fill="#207243" transform="translate(872,438)"/>
<path d="M0 0 C1.92806461 2.47894021 2.4067585 4.16082652 2.75 7.25 C6.47640923 7.58552523 6.47640923 7.58552523 9.61328125 5.76171875 C13.33160546 3.13102137 17.37301159 3.75732104 21.75 4.25 C27.28971656 6.13853974 30.10224166 11.29001192 32.75 16.25 C35.68293983 23.35784114 37.47750542 30.68200592 38.75 38.25 C43.59329426 37.79987972 46.5550876 35.44627456 50.125 32.375 C50.69718262 31.88612305 51.26936523 31.39724609 51.85888672 30.89355469 C58.94693436 24.60067285 63.31763089 17.00254122 66.75 8.25 C67.73537521 6.2427542 68.73063057 4.24019747 69.75 2.25 C75.04145847 2.06753591 78.71306461 2.41707509 83.75 4.25 C83.8015625 5.56355469 83.853125 6.87710938 83.90625 8.23046875 C84.01884291 9.96627609 84.13353699 11.70194803 84.25 13.4375 C84.27835938 14.30181641 84.30671875 15.16613281 84.3359375 16.05664062 C84.68951731 21.03133497 84.68951731 21.03133497 87.5234375 24.94384766 C93.62412968 28.82521752 98.90629675 29.42519104 106.03515625 29.67578125 C107.37900391 29.96001953 107.37900391 29.96001953 108.75 30.25 C109.41984189 31.58174099 110.08640966 32.91513294 110.75 34.25 C113.61711888 35.17252193 113.61711888 35.17252193 116.875 35.5 C117.97070312 35.64953125 119.06640625 35.7990625 120.1953125 35.953125 C121.45988281 36.10007812 121.45988281 36.10007812 122.75 36.25 C122.75 35.59 122.75 34.93 122.75 34.25 C119.45 33.59 116.15 32.93 112.75 32.25 C112.75 31.59 112.75 30.93 112.75 30.25 C121.80423465 29.93778501 130.99057399 30.84926843 139.75 33.25 C139.75 34.24 139.75 35.23 139.75 36.25 C137.68847611 36.89894237 135.62573742 37.5440264 133.5625 38.1875 C132.41394531 38.54714844 131.26539063 38.90679688 130.08203125 39.27734375 C122.75843353 41.41518177 115.8464637 41.50302873 108.25 41.5625 C107.04601562 41.59150391 105.84203125 41.62050781 104.6015625 41.65039062 C94.33710855 41.72213143 83.98088947 40.70148813 76.1875 33.4375 C75.60871094 32.81230469 75.02992188 32.18710937 74.43359375 31.54296875 C72.84554933 30.04604371 72.84554933 30.04604371 70.796875 30.28125 C68.07407923 31.56990143 66.57264513 33.32534394 64.5625 35.5625 C60.4049906 39.82190914 56.66158215 42.97341249 50.75 44.25 C47.33415373 44.2595682 44.10135394 43.89368385 40.75 43.25 C41.86179163 46.58537489 43.22411298 47.88707344 45.75 50.25 C42.27370156 50.80648256 39.20933449 50.98426831 35.75 50.25 C31.26595117 46.42237894 29.65373572 41.34942287 28.4375 35.75 C26.87007462 29.17423319 23.19934312 25.1267139 17.75 21.25 C14.25 19.66666667 14.25 19.66666667 10.75 21.25 C1.11826044 28.58409177 -8.3017806 44.35512549 -10.25 56.25 C-11.57 55.92 -12.89 55.59 -14.25 55.25 C-13.92 52.94 -13.59 50.63 -13.25 48.25 C-14.9 47.26 -16.55 46.27 -18.25 45.25 C-17.15667976 42.06943203 -15.75723182 39.46646621 -13.87890625 36.70703125 C-10.92645876 32.0320999 -9.38190329 27.22727711 -7.875 21.9375 C-7.60300781 21.04482422 -7.33101563 20.15214844 -7.05078125 19.23242188 C-5.41824537 14.26316184 -5.41824537 14.26316184 -6.25 9.25 C-12.26326751 9.82914667 -18.25892722 10.47337945 -24.25 11.25 C-23.29901734 9.26729088 -22.33899297 7.28891621 -21.375 5.3125 C-20.57449219 3.65927734 -20.57449219 3.65927734 -19.7578125 1.97265625 C-18.25 -0.75 -18.25 -0.75 -16.25 -1.75 C-4.84318546 -3.76692202 -4.84318546 -3.76692202 0 0 Z M-15.25 2.25 C-15.25 3.24 -15.25 4.23 -15.25 5.25 C-12.36788698 6.21070434 -10.55149956 6.35581883 -7.5625 6.3125 C-6.75425781 6.30347656 -5.94601562 6.29445313 -5.11328125 6.28515625 C-4.49839844 6.27355469 -3.88351562 6.26195312 -3.25 6.25 C-2.5685177 4.35820797 -2.5685177 4.35820797 -2.25 2.25 C-2.91 1.59 -3.57 0.93 -4.25 0.25 C-8.17896395 0.25 -11.44893228 1.25299863 -15.25 2.25 Z M12.75 6.25 C12.42 7.57 12.09 8.89 11.75 10.25 C13.07 10.58 14.39 10.91 15.75 11.25 C16.08 9.6 16.41 7.95 16.75 6.25 C15.43 6.25 14.11 6.25 12.75 6.25 Z " fill="#207344" transform="translate(489.25,691.75)"/>
<path d="M0 0 C3.13523765 1.90573269 5.2698847 4.24857705 7.3125 7.3125 C7.6425 4.6725 7.9725 2.0325 8.3125 -0.6875 C12.6025 -0.6875 16.8925 -0.6875 21.3125 -0.6875 C21.8075 0.3025 21.8075 0.3025 22.3125 1.3125 C23.36630859 0.58546875 23.36630859 0.58546875 24.44140625 -0.15625 C29.23494417 -2.71280356 34.01813493 -2.44690825 39.3125 -1.6875 C43.02488387 -0.02650989 44.89780867 2.30009715 46.44873047 6.08642578 C47.35749246 9.48054135 47.54121594 12.29732661 47.5078125 15.8046875 C47.50136719 17.00351562 47.49492188 18.20234375 47.48828125 19.4375 C47.46314453 21.29375 47.46314453 21.29375 47.4375 23.1875 C47.42847656 24.44820312 47.41945313 25.70890625 47.41015625 27.0078125 C47.38665894 30.10945681 47.35079009 33.21100303 47.3125 36.3125 C43.0225 36.3125 38.7325 36.3125 34.3125 36.3125 C34.26351563 34.78238281 34.21453125 33.25226562 34.1640625 31.67578125 C34.0890134 29.65883656 34.01346649 27.64191035 33.9375 25.625 C33.9065625 24.61759766 33.875625 23.61019531 33.84375 22.57226562 C33.80507812 21.59580078 33.76640625 20.61933594 33.7265625 19.61328125 C33.6951416 18.71778564 33.6637207 17.82229004 33.63134766 16.8996582 C33.28588887 14.09657493 32.46568532 11.87985469 31.3125 9.3125 C28.43836875 8.97852213 28.43836875 8.97852213 25.3125 9.3125 C22.35576809 12.28611763 21.9149764 14.62334943 21.80078125 18.734375 C21.76533203 19.75917969 21.72988281 20.78398438 21.69335938 21.83984375 C21.67080078 22.90332031 21.64824219 23.96679688 21.625 25.0625 C21.59083984 26.14144531 21.55667969 27.22039063 21.52148438 28.33203125 C21.43910142 30.99182392 21.37412163 33.65214537 21.3125 36.3125 C17.0225 36.3125 12.7325 36.3125 8.3125 36.3125 C7.8175 32.3525 7.8175 32.3525 7.3125 28.3125 C6.631875 29.240625 5.95125 30.16875 5.25 31.125 C1.29371729 35.73521374 -2.24424651 37.09187176 -8.19140625 37.62890625 C-15.40893721 37.85109439 -21.87239899 38.00765563 -27.6875 33.3125 C-31.35594604 29.77341982 -33.52957857 26.58717601 -33.890625 21.38671875 C-34.05103341 9.79721121 -34.05103341 9.79721121 -30.6875 5.3125 C-22.65036782 -2.37519165 -10.39217759 -4.84314691 0 0 Z M-17.4375 9.125 C-20.28838936 13.16375992 -20.41068014 15.8488972 -20.16796875 20.703125 C-19.80827132 23.57006001 -19.80827132 23.57006001 -17.625 26.5625 C-14.73769079 28.60226011 -14.73769079 28.60226011 -11.0625 28.4375 C-7.65977447 27.59160362 -7.65977447 27.59160362 -5.75 25.3125 C-4.09825746 20.64875636 -3.68229571 15.76241348 -5.58984375 11.11328125 C-6.99621446 8.80603251 -8.15764127 8.20539132 -10.6875 7.3125 C-14.67979087 6.94562443 -14.67979087 6.94562443 -17.4375 9.125 Z " fill="#F68711" transform="translate(1401.6875,709.6875)"/>
<path d="M0 0 C4.34314539 2.38612928 6.22287824 5.45328772 7.6484375 10.125 C8.33879944 16.98100822 5.1324319 23.12508803 2.58398438 29.3137207 C-0.72954439 37.4805443 -2.5979871 45.31692696 0.6328125 53.85546875 C2.99589945 57.56213943 6.38851839 59.92391026 9.91796875 62.46875 C10.60503906 62.9740625 11.29210937 63.479375 12 64 C12 64.33 12 64.66 12 65 C-0.42601651 65.6066952 -0.42601651 65.6066952 -6 62 C-8.27584904 59.14760254 -10.18883301 56.16456649 -12 53 C-15.24190238 53.58376913 -18.17829439 54.38501285 -21.25 55.5625 C-26.87259144 57.4648101 -32.13075177 58.10857318 -37.75 55.9375 C-42.99002808 51.4252536 -45.4070316 46.63736832 -47 40 C-47.33 39.67 -47.66 39.34 -48 39 C-48.82771933 29.89508733 -45.56322247 22.0347643 -39.89453125 14.9453125 C-28.95866614 3.71632111 -15.55714162 -2.09184673 0 0 Z M-31 21 C-31.86818359 21.70189453 -31.86818359 21.70189453 -32.75390625 22.41796875 C-35.66802323 24.85055073 -36.01154052 26.09088159 -36.5 29.9375 C-36.14523819 34.65583206 -35.01905988 38.24635644 -31.3359375 41.4453125 C-26.79669974 44.61011971 -21.62352983 46.89855324 -16 46 C-12.52493254 43.93843281 -11.22149201 42.64029908 -9.890625 38.79296875 C-9.67921875 37.60316406 -9.4678125 36.41335938 -9.25 35.1875 C-8.91742187 33.41439453 -8.91742187 33.41439453 -8.578125 31.60546875 C-8.01204234 28.07510188 -7.48976402 24.54171944 -7 21 C-4.69 21 -2.38 21 0 21 C-0.495 19.515 -0.495 19.515 -1 18 C-2.32 18 -3.64 18 -5 18 C-4.67 17.34 -4.34 16.68 -4 16 C-3.960008 14.00039988 -3.95653201 11.99952758 -4 10 C-6.28484705 8.85757648 -7.70836128 8.80187018 -10.25 8.75 C-10.99765625 8.72421875 -11.7453125 8.6984375 -12.515625 8.671875 C-20.3258509 9.70341427 -25.53693434 15.8823528 -31 21 Z " fill="#207343" transform="translate(679,679)"/>
<path d="M0 0 C4.28747299 1.69712473 5.91682406 3.94328896 8 8 C8.33 5.69 8.66 3.38 9 1 C13.29 1 17.58 1 22 1 C22 13.21 22 25.42 22 38 C13.09 38 4.18 38 -5 38 C-5.4375 25.0625 -5.4375 25.0625 -5.56811523 20.97680664 C-5.6252771 19.3969397 -5.6252771 19.3969397 -5.68359375 17.78515625 C-5.72025146 16.70113525 -5.75690918 15.61711426 -5.79467773 14.50024414 C-5.72364265 12.060737 -5.72364265 12.060737 -7 11 C-9.9157691 10.58297878 -9.9157691 10.58297878 -13 11 C-15.95060844 13.98135748 -16.39742664 16.30735903 -16.51171875 20.421875 C-16.54716797 21.44667969 -16.58261719 22.47148438 -16.61914062 23.52734375 C-16.65297852 25.12255859 -16.65297852 25.12255859 -16.6875 26.75 C-16.72166016 27.82894531 -16.75582031 28.90789063 -16.79101562 30.01953125 C-16.87339858 32.67932392 -16.93837837 35.33964537 -17 38 C-21.62 38 -26.24 38 -31 38 C-31 25.79 -31 13.58 -31 1 C-26.38 1 -21.76 1 -17 1 C-16.67 1.66 -16.34 2.32 -16 3 C-15.401875 2.505 -14.80375 2.01 -14.1875 1.5 C-9.48858945 -0.71125202 -5.11036088 -0.56183184 0 0 Z " fill="#F68611" transform="translate(1231,708)"/>
<path d="M0 0 C16.85593976 -0.87185895 36.20951958 5.28954337 50 15 C51.11955078 15.76763672 51.11955078 15.76763672 52.26171875 16.55078125 C53.12216797 17.26814453 53.12216797 17.26814453 54 18 C54 18.66 54 19.32 54 20 C55.32 20.33 56.64 20.66 58 21 C58 21.66 58 22.32 58 23 C58.5775 23.2475 59.155 23.495 59.75 23.75 C62.3002997 25.16683317 64.01785701 26.87627537 66 29 C65.38125 29.103125 64.7625 29.20625 64.125 29.3125 C61.63473516 29.87525373 61.63473516 29.87525373 60 33 C57.03 32.67 54.06 32.34 51 32 C51 31.34 51 30.68 51 30 C50.071875 30.2475 50.071875 30.2475 49.125 30.5 C47 31 47 31 45 31 C43.63875 31.4640625 43.63875 31.4640625 42.25 31.9375 C34.40059233 34.25100963 25.99424311 34.38981973 18 33 C16.02974566 33.25422637 14.05945461 33.50957971 12.09375 33.796875 C8.53118025 34.14249744 5.51025997 33.72626068 2 33 C-0.16926659 29.74610012 -0.24080049 28.86604043 -0.1953125 25.11328125 C-0.18886719 24.17548828 -0.18242188 23.23769531 -0.17578125 22.27148438 C-0.15902344 21.29501953 -0.14226563 20.31855469 -0.125 19.3125 C-0.11597656 18.32443359 -0.10695313 17.33636719 -0.09765625 16.31835938 C-0.07408566 13.87880294 -0.03821469 11.43937099 0 9 C4.62 9 9.24 9 14 9 C10.5000501 8.44000802 7.17392812 8 3.625 8 C2.75875 8 1.8925 8 1 8 C0 7 0 7 -0.0625 3.4375 C-0.041875 2.303125 -0.02125 1.16875 0 0 Z " fill="#207344" transform="translate(773,610)"/>
<path d="M0 0 C0.66 0 1.32 0 2 0 C7.859375 11.71875 7.859375 11.71875 8.92773438 13.85693359 C9.64622659 15.29293648 10.36629527 16.7281516 11.08789062 18.16259766 C18.08879616 32.09621808 25.81137235 47.72646744 28.03515625 63.23828125 C28.20466797 64.38748047 28.37417969 65.53667969 28.54882812 66.72070312 C28.8030957 68.49864258 28.8030957 68.49864258 29.0625 70.3125 C29.40384224 72.68413066 29.74869619 75.05525949 30.09765625 77.42578125 C30.24726807 78.47161377 30.39687988 79.51744629 30.55102539 80.5949707 C30.75492203 82.94336748 30.75492203 82.94336748 32 84 C32.09927221 85.4321421 32.13079987 86.8691103 32.1328125 88.3046875 C32.13514893 89.192771 32.13748535 90.08085449 32.13989258 90.99584961 C32.11574385 95.66447167 32.07736127 100.33192983 32 105 C31.98324219 106.10472656 31.96648438 107.20945312 31.94921875 108.34765625 C31.14719542 123.54026965 22.8838626 137.77878601 13 149 C12.34 149 11.68 149 11 149 C10.6596875 149.804375 10.6596875 149.804375 10.3125 150.625 C7.42893195 155.84288504 4.5925825 158.98045632 -1 161 C-1.33 161.99 -1.66 162.98 -2 164 C-4.95664519 165.4783226 -7.74229737 165.06032783 -11 165 C-11.8359375 162.85546875 -11.8359375 162.85546875 -12 160 C-10.25548964 157.83285053 -8.67000941 156.14552672 -6.625 154.3125 C-2.84280869 151.02952833 -2.84280869 151.02952833 0 147 C0.66 147 1.32 147 2 147 C2.27199219 146.43539062 2.54398438 145.87078125 2.82421875 145.2890625 C4.04845622 142.90566331 5.40525111 140.65481747 6.8125 138.375 C11.51978208 130.55631927 15.46867819 122.78133804 18 114 C18.35320313 112.89527344 18.70640625 111.79054688 19.0703125 110.65234375 C25.41038353 88.8611206 22.04815219 66.25103736 14.68676758 45.08618164 C14.06491969 43.1972054 13.58599461 41.26265595 13.125 39.328125 C11.75836899 33.6300643 9.67356392 28.1583062 7.68652344 22.65332031 C6.99709265 20.74193964 6.31454673 18.82820008 5.6328125 16.9140625 C3.51409773 10.74142112 3.51409773 10.74142112 0.85546875 4.79785156 C0 3 0 3 0 0 Z " fill="#207344" transform="translate(891,445)"/>
<path d="M0 0 C5.75 1.875 5.75 1.875 8 3 C8 4.65 8 6.3 8 8 C9.98 7.67 11.96 7.34 14 7 C13.34 8.98 12.68 10.96 12 13 C12.99 13.33 13.98 13.66 15 14 C15.77908171 18.41479633 15.91612606 21.65494496 15 26 C14.34745298 33.15662218 14.59045702 39.10771596 19 45 C24.29894023 50.63797195 29.35026682 52.93259537 37 54 C37 54.99 37 55.98 37 57 C17.00001938 57.51209054 17.00001938 57.51209054 8.5078125 51.70703125 C3.45587796 45.98761313 3.35861935 38.87929027 2.875 31.625 C2.73033376 29.6377427 2.58209755 27.6507409 2.4296875 25.6640625 C2.37022949 24.79217285 2.31077148 23.9202832 2.24951172 23.02197266 C2.21123248 21.0061713 2.21123248 21.0061713 1 20 C-0.66617115 19.95936168 -2.33388095 19.957279 -4 20 C-4.14695312 20.60585938 -4.29390625 21.21171875 -4.4453125 21.8359375 C-6.26228163 28.62346587 -9.02343314 34.21501887 -13 40 C-13.84111328 41.25490234 -13.84111328 41.25490234 -14.69921875 42.53515625 C-17.70758642 45.7580425 -20.91514958 47.28675751 -24.875 49.125 C-25.56980469 49.45886719 -26.26460937 49.79273438 -26.98046875 50.13671875 C-28.3454241 50.79220578 -29.71353763 51.44116323 -31.08496094 52.08300781 C-32.8336035 52.92032314 -34.54815135 53.82790827 -36.2578125 54.7421875 C-39 56 -39 56 -43 56 C-42.9140625 54.3046875 -42.9140625 54.3046875 -42 52 C-39.82333589 50.27850962 -37.65106478 48.70102751 -35.375 47.125 C-27.75637017 41.47758372 -24.37580998 35.95158602 -21 27 C-20.75958984 26.36449219 -20.51917969 25.72898437 -20.27148438 25.07421875 C-17.47247525 17.54480876 -15.25247627 9.94481214 -14 2 C-12.60974609 1.90912109 -12.60974609 1.90912109 -11.19140625 1.81640625 C-9.39509766 1.69072266 -9.39509766 1.69072266 -7.5625 1.5625 C-5.77005859 1.44068359 -5.77005859 1.44068359 -3.94140625 1.31640625 C-1.11429756 1.32343886 -1.11429756 1.32343886 0 0 Z M-6 13 C-6 13.66 -6 14.32 -6 15 C-1.38 15 3.24 15 8 15 C8 14.34 8 13.68 8 13 C3.38 13 -1.24 13 -6 13 Z " fill="#207343" transform="translate(728,677)"/>
<path d="M0 0 C0 2.97 0 5.94 0 9 C-1.65 9.66 -3.3 10.32 -5 11 C-3.35 10.67 -1.7 10.34 0 10 C0 19.24 0 28.48 0 38 C-3.47507875 38.69501575 -6.02106485 39.127566 -9.44140625 39.1328125 C-10.26697021 39.13482666 -11.09253418 39.13684082 -11.94311523 39.13891602 C-12.80751221 39.13432373 -13.67190918 39.12973145 -14.5625 39.125 C-15.45203369 39.12234131 -16.34156738 39.11968262 -17.25805664 39.11694336 C-24.77865051 39.06296617 -32.37814318 39.00304127 -39.75390625 37.40234375 C-40.49511719 37.26957031 -41.23632812 37.13679687 -42 37 C-42.495 37.495 -42.495 37.495 -43 38 C-45.33297433 38.04092937 -47.66705225 38.04241723 -50 38 C-51.4606285 35.35261084 -52 34.10551666 -52 31 C-49.69921875 29.2109375 -49.69921875 29.2109375 -46.6875 27.375 C-45.70136719 26.76398437 -44.71523438 26.15296875 -43.69921875 25.5234375 C-41 24 -41 24 -38 23 C-37.73703125 22.41863281 -37.4740625 21.83726562 -37.203125 21.23828125 C-35.45593489 17.98782693 -32.71257642 16.25329653 -29.75 14.1875 C-29.13318359 13.75244141 -28.51636719 13.31738281 -27.88085938 12.86914062 C-9.17417043 0 -9.17417043 0 0 0 Z M-15 14 C-15.66 14.66 -16.32 15.32 -17 16 C-16.01 16 -15.02 16 -14 16 C-14.33 15.34 -14.66 14.68 -15 14 Z M-39 30 C-38 32 -38 32 -38 32 Z M-41 33 C-40.34 33.66 -39.68 34.32 -39 35 C-39 34.34 -39 33.68 -39 33 C-39.66 33 -40.32 33 -41 33 Z " fill="#207344" transform="translate(954,605)"/>
<path d="M0 0 C2.13119756 2.13119756 1.2776691 6.62973829 1.3125 9.5625 C1.34150391 10.34947266 1.37050781 11.13644531 1.40039062 11.94726562 C1.45753726 17.27948634 0.44163942 20.48583589 -2.18676758 25.08569336 C-3.55038974 28.2955887 -2.82873835 30.68504658 -2 34 C8.33045462 36.20243195 18.41572706 38.26404549 29 36.5 C33.96578359 35.6723694 38.97710439 35.92685103 44 36 C44.33 36.66 44.66 37.32 45 38 C42.3759694 41.35292798 40.13548032 41.49269026 36 42 C28.34624923 42.54214068 20.66756012 42.74256642 13 43 C12.2059375 43.03013184 11.411875 43.06026367 10.59375 43.09130859 C-1.92051237 43.53622236 -1.92051237 43.53622236 -7.9140625 40.72265625 C-10.77395598 39.73186918 -13.48324919 39.66222802 -16.5 39.5 C-21.98589544 39.16867995 -26.11976385 38.57823797 -31 36 C-32.5 33.3125 -32.5 33.3125 -33 31 C-29.47844036 28.65229357 -27.49228157 28.62330386 -23.3125 28.375 C-22.13300781 28.30023437 -20.95351563 28.22546875 -19.73828125 28.1484375 C-18.83464844 28.09945312 -17.93101562 28.05046875 -17 28 C-16.9175 26.783125 -16.835 25.56625 -16.75 24.3125 C-15.93308835 17.15317709 -14.60749612 8.07538066 -9.375 2.75 C-5.98177621 0.24972984 -4.19289704 -0.21502036 0 0 Z M-15 28 C-15.33 28.99 -15.66 29.98 -16 31 C-14.68 30.67 -13.36 30.34 -12 30 C-12 29.34 -12 28.68 -12 28 C-12.99 28 -13.98 28 -15 28 Z " fill="#207343" transform="translate(578,652)"/>
<path d="M0 0 C15.9838667 1.5415912 30.21521658 5.60198185 44.12890625 13.91015625 C46.52665414 15.3067568 48.98389117 16.57919835 51.4375 17.875 C56.32248059 20.53162643 60.68241058 23.50797163 65 27 C65.83337891 27.6496875 65.83337891 27.6496875 66.68359375 28.3125 C71.178303 31.8993004 74.65419449 35.72193759 77 41 C72.33385381 42.55538206 68.51919881 42.62008115 63.9375 40.75 C58.58251367 37.55979538 53.62139149 34.18125897 49 30 C49 29.34 49 28.68 49 28 C48.01 28 47.02 28 46 28 C44.97803008 27.02246356 43.98020375 26.0194119 43 25 C40.90010348 23.82425289 40.90010348 23.82425289 39 23 C39 22.34 39 21.68 39 21 C38.28714844 20.88140625 37.57429687 20.7628125 36.83984375 20.640625 C33.86972447 19.97061185 31.34930683 18.97140216 28.5625 17.75 C22.85611016 15.3154613 17.07841986 13.19330277 11.2265625 11.13671875 C7.46292536 9.81078848 3.72996596 8.41738707 0 7 C0 4.69 0 2.38 0 0 Z " fill="#207344" transform="translate(774,590)"/>
<path d="M0 0 C0 2.31 0 4.62 0 7 C-1.28970703 7.51046875 -1.28970703 7.51046875 -2.60546875 8.03125 C-13.51977242 12.50647157 -23.79927069 17.71627636 -32.58203125 25.76171875 C-34.54331151 27.47446212 -36.76692657 28.67222661 -39 30 C-40.98375825 31.91507415 -42.88382663 33.87068485 -44.7265625 35.921875 C-50.02476969 41.02385229 -54.48819501 41.56735446 -61.5625 41.4375 C-64.38326819 41.34577669 -67.18332913 41.19142423 -70 41 C-70 40.34 -70 39.68 -70 39 C-68.88625 38.505 -67.7725 38.01 -66.625 37.5 C-61.18022595 34.79222328 -53.78448098 30.56896197 -51 25 C-49.40098514 24.081417 -47.7984717 23.16843477 -46.1796875 22.28515625 C-42.67211049 20.21706873 -39.42496158 17.7875677 -36.13671875 15.390625 C-34 14 -34 14 -32 14 C-32 13.34 -32 12.68 -32 12 C-7.15533981 0 -7.15533981 0 0 0 Z " fill="#207243" transform="translate(954,585)"/>
<path d="M0 0 C0.99 0 1.98 0 3 0 C3.33 2.31 3.66 4.62 4 7 C4.66 7 5.32 7 6 7 C5.95875 7.78375 5.9175 8.5675 5.875 9.375 C6.0362967 14.0526044 6.99085661 18.44083432 8 23 C7.21625 22.175 6.4325 21.35 5.625 20.5 C3.36278736 17.77011494 3.36278736 17.77011494 1 18 C1.66 18.99 2.32 19.98 3 21 C1.24908981 20.91245449 -0.50079551 20.80426627 -2.25 20.6875 C-3.22453125 20.62949219 -4.1990625 20.57148437 -5.203125 20.51171875 C-8.3200934 19.94143543 -9.6169293 19.0256101 -12 17 C-13.2366696 16.24844673 -14.4861293 15.51735097 -15.75 14.8125 C-16.8225 14.214375 -17.895 13.61625 -19 13 C-19 11.68 -19 10.36 -19 9 C-19.66 8.34 -20.32 7.68 -21 7 C-20.01 6.01 -19.02 5.02 -18 4 C-14 9.625 -14 9.625 -14 13 C-11.525 13.99 -11.525 13.99 -9 15 C-9.350625 14.38125 -9.70125 13.7625 -10.0625 13.125 C-10.371875 12.42375 -10.68125 11.7225 -11 11 C-10.67 10.34 -10.34 9.68 -10 9 C-9.34 9 -8.68 9 -8 9 C-8 9.66 -8 10.32 -8 11 C-6.35 11.33 -4.7 11.66 -3 12 C-3 11.01 -3 10.02 -3 9 C-2.01 9 -1.02 9 0 9 C-0.185625 8.071875 -0.37125 7.14375 -0.5625 6.1875 C-1 3 -1 3 0 0 Z " fill="#207243" transform="translate(795,548)"/>
<path d="M0 0 C4.29 0 8.58 0 13 0 C13 3.63 13 7.26 13 11 C8.71 11 4.42 11 0 11 C0 7.37 0 3.74 0 0 Z " fill="#F58712" transform="translate(1352,694)"/>
<path d="M0 0 C4.29 0 8.58 0 13 0 C13 3.63 13 7.26 13 11 C8.71 11 4.42 11 0 11 C0 7.37 0 3.74 0 0 Z " fill="#F58712" transform="translate(1240,694)"/>
<path d="M0 0 C0.66 0 1.32 0 2 0 C2.20496094 0.96421875 2.40992188 1.9284375 2.62109375 2.921875 C2.89050781 4.18515625 3.15992188 5.4484375 3.4375 6.75 C3.83775391 8.62945312 3.83775391 8.62945312 4.24609375 10.546875 C4.66811532 12.47986498 5.11610598 14.40913537 5.65625 16.3125 C6.14471335 18.71041101 5.23463964 19.96647589 4 22 C3.67 22 3.34 22 3 22 C3 20.35 3 18.7 3 17 C2.34 17 1.68 17 1 17 C0.34 19.97 -0.32 22.94 -1 26 C-1.66 26 -2.32 26 -3 26 C-2.67 21.38 -2.34 16.76 -2 12 C-1.34 12 -0.68 12 0 12 C0 8.04 0 4.08 0 0 Z " fill="#217444" transform="translate(938,502)"/>
<path d="M0 0 C1.32 0 2.64 0 4 0 C2.68771164 3.41437991 1.19698288 6.63624609 -0.5 9.875 C-2.53391997 13.8828423 -3.9564723 17.63615687 -5 22 C-6.32 22.33 -7.64 22.66 -9 23 C-4.96127563 8.21867882 -4.96127563 8.21867882 -2 2 C-1.34 2 -0.68 2 0 2 C0 1.34 0 0.68 0 0 Z " fill="#207041" transform="translate(850,504)"/>
<path d="M0 0 C2 2 2 2 2.265625 4.57421875 C2.23620216 10.43671949 2.00979123 15.47307412 0 21 C-0.33 21 -0.66 21 -1 21 C-1.33 19.02 -1.66 17.04 -2 15 C-2.33 16.98 -2.66 18.96 -3 21 C-3.66 21 -4.32 21 -5 21 C-4.88557539 19.39504433 -4.75805306 17.79101881 -4.625 16.1875 C-4.55539062 15.29417969 -4.48578125 14.40085937 -4.4140625 13.48046875 C-4 11 -4 11 -2 8 C-1.63858045 5.67085177 -1.30300475 3.33746522 -1 1 C-0.67 0.67 -0.34 0.34 0 0 Z M0 10 C1 13 1 13 1 13 Z " fill="#207446" transform="translate(952,489)"/>
<path d="M0 0 C0.66 0 1.32 0 2 0 C2.66 3.3 3.32 6.6 4 10 C5.32 10.33 6.64 10.66 8 11 C8.66 14.3 9.32 17.6 10 21 C9.34 21 8.68 21 8 21 C6.00902154 18.01353231 5.05875074 15.40312738 4 12 C3.34 12 2.68 12 2 12 C0.00214565 7.8794254 -0.17835515 4.54805635 0 0 Z " fill="#1E6B3F" transform="translate(896,476)"/>
<path d="M0 0 C1.9375 0.8125 1.9375 0.8125 4 2 C4.33 2.99 4.66 3.98 5 5 C6.65 5.33 8.3 5.66 10 6 C10 7.65 10 9.3 10 11 C7 10 7 10 5 7 C4.01 6.67 3.02 6.34 2 6 C0.8125 2.9375 0.8125 2.9375 0 0 Z " fill="#207447" transform="translate(896,442)"/>
<path d="M0 0 C0.66 0 1.32 0 2 0 C2.27714844 0.56589844 2.55429687 1.13179688 2.83984375 1.71484375 C3.20207031 2.44832031 3.56429687 3.18179687 3.9375 3.9375 C4.29714844 4.66839844 4.65679688 5.39929688 5.02734375 6.15234375 C5.86371827 7.96249027 5.86371827 7.96249027 7 9 C7.04063832 10.66617115 7.042721 12.33388095 7 14 C4.22685913 12.61342957 3.74046543 10.8798864 2.375 8.125 C1.70597656 6.79855469 1.70597656 6.79855469 1.0234375 5.4453125 C0 3 0 3 0 0 Z " fill="#207443" transform="translate(893,498)"/>
<path d="M0 0 C0.66 0 1.32 0 2 0 C2.67408308 1.26691507 3.33900497 2.53870749 4 3.8125 C4.556875 4.87404297 4.556875 4.87404297 5.125 5.95703125 C6 8 6 8 6 11 C2.82880497 9.90648447 1.99216457 8.9873012 0.1875 6.0625 C-1 3 -1 3 0 0 Z " fill="#1F7043" transform="translate(914,471)"/>
<path d="M0 0 C0.66 0.33 1.32 0.66 2 1 C1.67 2.32 1.34 3.64 1 5 C0.01 4.67 -0.98 4.34 -2 4 C-2.33 4.66 -2.66 5.32 -3 6 C-3.66 6 -4.32 6 -5 6 C-4.1875 3.5625 -4.1875 3.5625 -3 1 C-2.01 0.67 -1.02 0.34 0 0 Z " fill="#206E40" transform="translate(856,454)"/>
<path d="M0 0 C0.66 0 1.32 0 2 0 C3.6875 2.3125 3.6875 2.3125 5 5 C4.67 5.99 4.34 6.98 4 8 C0 2.25 0 2.25 0 0 Z " fill="#207344" transform="translate(835,600)"/>
<path d="M0 0 C0.99 0.33 1.98 0.66 3 1 C3 1.66 3 2.32 3 3 C3.66 3 4.32 3 5 3 C5 3.99 5 4.98 5 6 C3.68 5.67 2.36 5.34 1 5 C0.67 3.35 0.34 1.7 0 0 Z " fill="#1C754B" transform="translate(846,573)"/>
<path d="M0 0 C2.64 0.33 5.28 0.66 8 1 C7.67 1.66 7.34 2.32 7 3 C4.69 2.67 2.38 2.34 0 2 C0 1.34 0 0.68 0 0 Z " fill="#1F6C3F" transform="translate(774,605)"/>
<path d="M0 0 C4.455 0.99 4.455 0.99 9 2 C9 2.66 9 3.32 9 4 C4.545 3.01 4.545 3.01 0 2 C0 1.34 0 0.68 0 0 Z " fill="#227244" transform="translate(774,568)"/>
<path d="M0 0 C0.99 0 1.98 0 3 0 C3.66 1.32 4.32 2.64 5 4 C3.68 4.33 2.36 4.66 1 5 C0.67 3.35 0.34 1.7 0 0 Z " fill="#1F6B3F" transform="translate(785,549)"/>
<path d="M0 0 C0.66 0 1.32 0 2 0 C2 2.64 2 5.28 2 8 C1.34 8 0.68 8 0 8 C0 5.36 0 2.72 0 0 Z " fill="#217344" transform="translate(939,537)"/>
<path d="M0 0 C0.66 0 1.32 0 2 0 C1.1875 2.4375 1.1875 2.4375 0 5 C-0.99 5.33 -1.98 5.66 -3 6 C-1.125 1.125 -1.125 1.125 0 0 Z " fill="#1D683F" transform="translate(952,559)"/>
<path d="M0 0 C0.33 0 0.66 0 1 0 C1 3.63 1 7.26 1 11 C0.34 11 -0.32 11 -1 11 C-0.67 7.37 -0.34 3.74 0 0 Z " fill="#1C6439" transform="translate(814,543)"/>
<path d="M0 0 C1.32 0 2.64 0 4 0 C4 1.32 4 2.64 4 4 C2.68 3.67 1.36 3.34 0 3 C0 2.01 0 1.02 0 0 Z " fill="#1F6C40" transform="translate(933,482)"/>
<path d="M0 0 C0.66 0.66 1.32 1.32 2 2 C1.625 5.625 1.625 5.625 1 9 C-0.61949011 6.42786866 -1.04408751 5.32330841 -0.625 2.25 C-0.41875 1.5075 -0.2125 0.765 0 0 Z " fill="#207442" transform="translate(809,535)"/>
<path d="M0 0 C0.66 0 1.32 0 2 0 C2.33 1.98 2.66 3.96 3 6 C2.01 6.33 1.02 6.66 0 7 C0 4.69 0 2.38 0 0 Z " fill="#217748" transform="translate(920,482)"/>
<path d="M0 0 C1.5 1.1875 1.5 1.1875 3 3 C3.1875 5.6875 3.1875 5.6875 3 8 C2.34 7.67 1.68 7.34 1 7 C0.59270772 4.67843403 0.25561323 2.3431213 0 0 Z " fill="#1F7548" transform="translate(886,458)"/>
<path d="M0 0 C0.66 0 1.32 0 2 0 C1.34 1.65 0.68 3.3 0 5 C-0.66 5 -1.32 5 -2 5 C-1.125 1.125 -1.125 1.125 0 0 Z " fill="#1E6238" transform="translate(944,565)"/>
<path d="M0 0 C0.66 0 1.32 0 2 0 C1.6875 1.9375 1.6875 1.9375 1 4 C0.01 4.33 -0.98 4.66 -2 5 C-1.34 3.35 -0.68 1.7 0 0 Z " fill="#1E6A3E" transform="translate(948,559)"/>
<path d="M0 0 C1.5 1.25 1.5 1.25 3 3 C3 4.32 3 5.64 3 7 C2.34 7 1.68 7 1 7 C0.67 4.69 0.34 2.38 0 0 Z " fill="#217545" transform="translate(820,556)"/>
<path d="M0 0 C0.66 0 1.32 0 2 0 C2 2.64 2 5.28 2 8 C1.01 8.495 1.01 8.495 0 9 C0 6.03 0 3.06 0 0 Z " fill="#1E6B40" transform="translate(948,525)"/>
<path d="M0 0 C0.66 0 1.32 0 2 0 C2 2.31 2 4.62 2 7 C1.34 6.67 0.68 6.34 0 6 C0 4.02 0 2.04 0 0 Z " fill="#1E6B40" transform="translate(901,516)"/>
<path d="M0 0 C0.66 0.66 1.32 1.32 2 2 C1.34 3.65 0.68 5.3 0 7 C-0.66 7 -1.32 7 -2 7 C-1.34 4.69 -0.68 2.38 0 0 Z " fill="#207145" transform="translate(836,494)"/>
<path d="M0 0 C0.33 0.99 0.66 1.98 1 3 C0.67 3.66 0.34 4.32 0 5 C-0.99 5 -1.98 5 -3 5 C-1.125 1.125 -1.125 1.125 0 0 Z " fill="#1F7447" transform="translate(872,625)"/>
<path d="M0 0 C0.66 0 1.32 0 2 0 C2 1.98 2 3.96 2 6 C1.34 6 0.68 6 0 6 C0 4.02 0 2.04 0 0 Z " fill="#1E6A3F" transform="translate(860,577)"/>
<path d="M0 0 C0.66 0 1.32 0 2 0 C2.33 1.98 2.66 3.96 3 6 C2.34 6 1.68 6 1 6 C0.67 4.02 0.34 2.04 0 0 Z " fill="#227344" transform="translate(805,562)"/>
<path d="M0 0 C0.33 0 0.66 0 1 0 C1 2.31 1 4.62 1 7 C0.34 7 -0.32 7 -1 7 C-1.04254356 5.00045254 -1.04080783 2.99958364 -1 1 C-0.67 0.67 -0.34 0.34 0 0 Z " fill="#1D6E46" transform="translate(944,488)"/>
<path d="M0 0 C1.98 0.66 3.96 1.32 6 2 C6 2.33 6 2.66 6 3 C4.02 3 2.04 3 0 3 C0 2.01 0 1.02 0 0 Z " fill="#237142" transform="translate(870,576)"/>
<path d="M0 0 C1.32 0 2.64 0 4 0 C3.67 0.99 3.34 1.98 3 3 C2.01 3.33 1.02 3.66 0 4 C0 2.68 0 1.36 0 0 Z " fill="#1C7548" transform="translate(930,573)"/>
<path d="M0 0 C0.66 0 1.32 0 2 0 C2.33 1.65 2.66 3.3 3 5 C2.01 5.495 2.01 5.495 1 6 C0.67 4.02 0.34 2.04 0 0 Z " fill="#1E6A3F" transform="translate(838,557)"/>
<path d="M0 0 C0.99 0 1.98 0 3 0 C3 1.32 3 2.64 3 4 C2.01 3.67 1.02 3.34 0 3 C0 2.01 0 1.02 0 0 Z " fill="#1F764C" transform="translate(904,498)"/>
<path d="M0 0 C0.99 0 1.98 0 3 0 C2.67 1.32 2.34 2.64 2 4 C1.34 4 0.68 4 0 4 C0 2.68 0 1.36 0 0 Z " fill="#1F693D" transform="translate(939,476)"/>
<path d="M0 0 C0.99 0 1.98 0 3 0 C2.67 0.99 2.34 1.98 2 3 C1.01 3 0.02 3 -1 3 C-0.67 2.01 -0.34 1.02 0 0 Z " fill="#19643D" transform="translate(920,587)"/>
<path d="M0 0 C2 2 2 2 2.125 4.625 C2.08375 5.40875 2.0425 6.1925 2 7 C0 5 0 5 -0.125 2.375 C-0.08375 1.59125 -0.0425 0.8075 0 0 Z " fill="#207443" transform="translate(816,562)"/>
<path d="M0 0 C1.4606285 2.64738916 2 3.89448334 2 7 C1.34 7 0.68 7 0 7 C0 4.69 0 2.38 0 0 Z " fill="#217244" transform="translate(837,548)"/>
<path d="M0 0 C0.66 0 1.32 0 2 0 C2 1.65 2 3.3 2 5 C1.34 5 0.68 5 0 5 C0 3.35 0 1.7 0 0 Z " fill="#1F683A" transform="translate(821,550)"/>
<path d="M0 0 C0.66 0 1.32 0 2 0 C2 1.65 2 3.3 2 5 C1.34 5 0.68 5 0 5 C0 3.35 0 1.7 0 0 Z " fill="#1F7242" transform="translate(816,527)"/>
<path d="M0 0 C0.99 0.99 1.98 1.98 3 3 C2.67 3.66 2.34 4.32 2 5 C1.34 5 0.68 5 0 5 C0 3.35 0 1.7 0 0 Z " fill="#227545" transform="translate(928,494)"/>
<path d="M0 0 C0.66 0 1.32 0 2 0 C2.33 1.98 2.66 3.96 3 6 C0 2.25 0 2.25 0 0 Z " fill="#1F7444" transform="translate(922,455)"/>
<path d="M0 0 C0.66 0.33 1.32 0.66 2 1 C2 1.99 2 2.98 2 4 C1.01 3.67 0.02 3.34 -1 3 C-0.67 2.01 -0.34 1.02 0 0 Z " fill="#227443" transform="translate(854,638)"/>
<path d="M0 0 C0.66 0.33 1.32 0.66 2 1 C2 1.99 2 2.98 2 4 C1.01 3.67 0.02 3.34 -1 3 C-0.67 2.01 -0.34 1.02 0 0 Z " fill="#217142" transform="translate(866,633)"/>
<path d="M0 0 C0.99 0.66 1.98 1.32 3 2 C1.68 2.33 0.36 2.66 -1 3 C-1.33 2.34 -1.66 1.68 -2 1 C-1.34 0.67 -0.68 0.34 0 0 Z " fill="#1E7444" transform="translate(895,627)"/>
<path d="M0 0 C0.33 0.99 0.66 1.98 1 3 C0.67 3.66 0.34 4.32 0 5 C-0.66 5 -1.32 5 -2 5 C-1.34 3.35 -0.68 1.7 0 0 Z " fill="#227441" transform="translate(913,592)"/>
<path d="M0 0 C0.66 0 1.32 0 2 0 C1.67 1.65 1.34 3.3 1 5 C0.67 5 0.34 5 0 5 C0 3.35 0 1.7 0 0 Z " fill="#1F643A" transform="translate(930,528)"/>
<path d="M0 0 C0.66 0 1.32 0 2 0 C1.67 1.65 1.34 3.3 1 5 C0.67 5 0.34 5 0 5 C0 3.35 0 1.7 0 0 Z " fill="#207443" transform="translate(909,522)"/>
<path d="M0 0 C0.66 0 1.32 0 2 0 C1.34 1.32 0.68 2.64 0 4 C-0.33 3.01 -0.66 2.02 -1 1 C-0.67 0.67 -0.34 0.34 0 0 Z " fill="#247346" transform="translate(878,635)"/>
<path d="M0 0 C0.99 0.33 1.98 0.66 3 1 C2.67 1.66 2.34 2.32 2 3 C1.01 2.67 0.02 2.34 -1 2 C-0.67 1.34 -0.34 0.68 0 0 Z " fill="#1D643D" transform="translate(883,614)"/>
<path d="M0 0 C1.32 0 2.64 0 4 0 C4 0.66 4 1.32 4 2 C2.68 2 1.36 2 0 2 C0 1.34 0 0.68 0 0 Z " fill="#217243" transform="translate(786,587)"/>
<path d="M0 0 C0.99 0.33 1.98 0.66 3 1 C3 1.66 3 2.32 3 3 C2.01 3 1.02 3 0 3 C0 2.01 0 1.02 0 0 Z " fill="#237142" transform="translate(853,585)"/>
<path d="M0 0 C0.99 0 1.98 0 3 0 C3 0.99 3 1.98 3 3 C2.01 2.67 1.02 2.34 0 2 C0 1.34 0 0.68 0 0 Z " fill="#247241" transform="translate(802,573)"/>
<path d="M0 0 C1.98 0.99 1.98 0.99 4 2 C3.67 2.66 3.34 3.32 3 4 C2.01 3.34 1.02 2.68 0 2 C0 1.34 0 0.68 0 0 Z " fill="#207342" transform="translate(798,569)"/>
<path d="M0 0 C0.66 0 1.32 0 2 0 C2 1.65 2 3.3 2 5 C1.34 4.34 0.68 3.68 0 3 C0 2.01 0 1.02 0 0 Z " fill="#217444" transform="translate(805,554)"/>
<path d="M0 0 C0.99 0 1.98 0 3 0 C2.67 0.99 2.34 1.98 2 3 C1.34 3 0.68 3 0 3 C0 2.01 0 1.02 0 0 Z " fill="#257443" transform="translate(778,551)"/>
<path d="M0 0 C0.66 0.66 1.32 1.32 2 2 C1.67 2.66 1.34 3.32 1 4 C0.34 4 -0.32 4 -1 4 C-0.67 2.68 -0.34 1.36 0 0 Z " fill="#1E663D" transform="translate(844,473)"/>
<path d="M0 0 C0.66 0 1.32 0 2 0 C1.67 1.32 1.34 2.64 1 4 C0.34 4 -0.32 4 -1 4 C-0.67 2.68 -0.34 1.36 0 0 Z " fill="#217344" transform="translate(846,461)"/>
<path d="M0 0 C0.99 0.495 0.99 0.495 2 1 C2 1.99 2 2.98 2 4 C1.34 4 0.68 4 0 4 C0 2.68 0 1.36 0 0 Z " fill="#207146" transform="translate(840,598)"/>
<path d="M0 0 C1.32 0 2.64 0 4 0 C4 0.66 4 1.32 4 2 C2.68 1.67 1.36 1.34 0 1 C0 0.67 0 0.34 0 0 Z " fill="#227446" transform="translate(776,572)"/>
<path d="M0 0 C0.66 0 1.32 0 2 0 C1.34 1.32 0.68 2.64 0 4 C-0.33 3.34 -0.66 2.68 -1 2 C-0.67 1.34 -0.34 0.68 0 0 Z " fill="#217444" transform="translate(924,570)"/>
<path d="M0 0 C0.99 0.33 1.98 0.66 3 1 C3 1.66 3 2.32 3 3 C2.01 2.67 1.02 2.34 0 2 C0 1.34 0 0.68 0 0 Z " fill="#1C764D" transform="translate(809,553)"/>
<path d="M0 0 C0.66 0.33 1.32 0.66 2 1 C1.67 1.99 1.34 2.98 1 4 C0.34 4 -0.32 4 -1 4 C-0.67 2.68 -0.34 1.36 0 0 Z " fill="#247141" transform="translate(820,524)"/>
<path d="M0 0 C0.66 0 1.32 0 2 0 C1.34 1.32 0.68 2.64 0 4 C0 2.68 0 1.36 0 0 Z " fill="#217443" transform="translate(865,620)"/>
<path d="M0 0 C0 0.99 0 1.98 0 3 C-0.66 3 -1.32 3 -2 3 C-2 2.34 -2 1.68 -2 1 C-1.34 0.67 -0.68 0.34 0 0 Z " fill="#207443" transform="translate(923,614)"/>
<path d="M0 0 C0.66 0.33 1.32 0.66 2 1 C1.67 1.66 1.34 2.32 1 3 C0.34 3 -0.32 3 -1 3 C-0.67 2.01 -0.34 1.02 0 0 Z " fill="#1D5D34" transform="translate(899,602)"/>
<path d="M0 0 C1.98 0.99 1.98 0.99 4 2 C2.68 2 1.36 2 0 2 C0 1.34 0 0.68 0 0 Z " fill="#1C6037" transform="translate(781,588)"/>
<path d="M0 0 C0.66 0 1.32 0 2 0 C2 0.99 2 1.98 2 3 C1.34 3 0.68 3 0 3 C0 2.01 0 1.02 0 0 Z " fill="#247240" transform="translate(856,583)"/>
<path d="M0 0 C0.99 0.33 1.98 0.66 3 1 C2.34 1.66 1.68 2.32 1 3 C0.67 2.01 0.34 1.02 0 0 Z " fill="#267442" transform="translate(900,571)"/>
<path d="M0 0 C0.66 0 1.32 0 2 0 C1.67 0.99 1.34 1.98 1 3 C0.34 2.67 -0.32 2.34 -1 2 C-0.67 1.34 -0.34 0.68 0 0 Z " fill="#1A774E" transform="translate(929,563)"/>
<path d="M0 0 C0.66 0 1.32 0 2 0 C1.67 0.99 1.34 1.98 1 3 C0.34 2.67 -0.32 2.34 -1 2 C-0.67 1.34 -0.34 0.68 0 0 Z " fill="#227546" transform="translate(951,549)"/>
<path d="M0 0 C0.99 0.495 0.99 0.495 2 1 C1.67 1.99 1.34 2.98 1 4 C0.67 2.68 0.34 1.36 0 0 Z " fill="#177657" transform="translate(790,548)"/>
<path d="M0 0 C0.66 0 1.32 0 2 0 C2 0.99 2 1.98 2 3 C1.34 3 0.68 3 0 3 C0 2.01 0 1.02 0 0 Z " fill="#207442" transform="translate(815,538)"/>
<path d="M0 0 C0.66 0 1.32 0 2 0 C2 0.99 2 1.98 2 3 C1.34 3 0.68 3 0 3 C0 2.01 0 1.02 0 0 Z " fill="#1F6B43" transform="translate(823,529)"/>
<path d="M0 0 C0.99 0 1.98 0 3 0 C3 0.66 3 1.32 3 2 C2.01 2 1.02 2 0 2 C0 1.34 0 0.68 0 0 Z " fill="#156B4C" transform="translate(937,494)"/>
<path d="M0 0 C0.66 0 1.32 0 2 0 C2 0.99 2 1.98 2 3 C1.34 3 0.68 3 0 3 C0 2.01 0 1.02 0 0 Z " fill="#156A4A" transform="translate(892,455)"/>
<path d="M0 0 C0.99 0.495 0.99 0.495 2 1 C2 1.66 2 2.32 2 3 C1.34 3 0.68 3 0 3 C0 2.01 0 1.02 0 0 Z " fill="#247548" transform="translate(829,593)"/>
<path d="M0 0 C0.66 0 1.32 0 2 0 C1.67 0.99 1.34 1.98 1 3 C0.67 2.01 0.34 1.02 0 0 Z " fill="#207145" transform="translate(836,590)"/>
<path d="M0 0 C0.99 0.33 1.98 0.66 3 1 C2.01 1.33 1.02 1.66 0 2 C0 1.34 0 0.68 0 0 Z " fill="#1A754F" transform="translate(864,585)"/>
<path d="M0 0 C0.99 0.495 0.99 0.495 2 1 C2 1.66 2 2.32 2 3 C1.34 3 0.68 3 0 3 C0 2.01 0 1.02 0 0 Z " fill="#207443" transform="translate(863,574)"/>
<path d="M0 0 C0.99 0.33 1.98 0.66 3 1 C2.01 1.33 1.02 1.66 0 2 C0 1.34 0 0.68 0 0 Z " fill="#1B764F" transform="translate(870,572)"/>
<path d="M0 0 C0.33 0.99 0.66 1.98 1 3 C0.34 3 -0.32 3 -1 3 C-0.67 2.01 -0.34 1.02 0 0 Z " fill="#217343" transform="translate(811,509)"/>
<path d="M0 0 C1.65 0 3.3 0 5 0 C5 0.33 5 0.66 5 1 C3.35 1 1.7 1 0 1 C0 0.67 0 0.34 0 0 Z " fill="#217445" transform="translate(874,501)"/>
<path d="M0 0 C0.66 0 1.32 0 2 0 C1.67 0.99 1.34 1.98 1 3 C0.67 2.01 0.34 1.02 0 0 Z " fill="#19774D" transform="translate(945,486)"/>
<path d="M0 0 C0.66 0 1.32 0 2 0 C1.67 0.99 1.34 1.98 1 3 C0.67 2.01 0.34 1.02 0 0 Z " fill="#217543" transform="translate(832,480)"/>
<path d="M0 0 C0.99 0.495 0.99 0.495 2 1 C2 1.66 2 2.32 2 3 C1.34 3 0.68 3 0 3 C0 2.01 0 1.02 0 0 Z " fill="#207542" transform="translate(877,460)"/>
<path d="M0 0 C0.99 0.495 0.99 0.495 2 1 C2 1.66 2 2.32 2 3 C1.34 3 0.68 3 0 3 C0 2.01 0 1.02 0 0 Z " fill="#1D7244" transform="translate(871,453)"/>
<path d="M0 0 C0.66 0 1.32 0 2 0 C2 0.66 2 1.32 2 2 C1.34 2 0.68 2 0 2 C0 1.34 0 0.68 0 0 Z " fill="#1F7444" transform="translate(927,575)"/>
<path d="M0 0 C0.66 0 1.32 0 2 0 C2 0.66 2 1.32 2 2 C1.34 2 0.68 2 0 2 C0 1.34 0 0.68 0 0 Z " fill="#217244" transform="translate(855,491)"/>
<path d="M0 0 C0.66 0 1.32 0 2 0 C2 0.66 2 1.32 2 2 C1.34 2 0.68 2 0 2 C0 1.34 0 0.68 0 0 Z " fill="#1F7443" transform="translate(930,468)"/>
<path d="" fill="#207444" transform="translate(0,0)"/>
<path d="" fill="#16694A" transform="translate(0,0)"/>
<path d="" fill="#217443" transform="translate(0,0)"/>
<path d="" fill="#207345" transform="translate(0,0)"/>
</svg>
